<?xml version="1.0" encoding="utf-8"?>
<!-- Generator: Adobe Illustrator 22.1.0, SVG Export Plug-In . SVG Version: 6.00 Build 0)  -->
<svg version="1.1" xmlns="http://www.w3.org/2000/svg" xmlns:xlink="http://www.w3.org/1999/xlink" x="0px" y="0px"
	 viewBox="0 0 379 451" style="enable-background:new 0 0 379 451;" xml:space="preserve">
<style type="text/css">
	.st0{fill:none;stroke:#D0D0D0;stroke-width:0.3;stroke-miterlimit:10;}
	.st1{fill:none;stroke:#D0D0D0;stroke-width:0.4;stroke-miterlimit:10;}
	.st2{fill:none;stroke:#D0D0D0;stroke-width:0.6;stroke-miterlimit:10;}
	.st3{fill:none;stroke:#D0D0D0;stroke-width:0.8;stroke-miterlimit:10;}
	.st4{fill:#231815;}
	.st5{fill:#D91817;}
	.st6{fill:#C3181F;}
	.st7{fill:#E62119;}
	.st8{fill:#9A1E23;}
	.st9{fill:#AF1E23;}
	.st10{fill:#5C0D11;}
	.st11{fill:#FFFFFF;}
	.st12{fill:#EEECEC;}
	.st13{fill:#EEE939;}
	.st14{font-family:'Arial-BoldMT';}
	.st15{font-size:6px;}
	.st16{fill:#0AFF06;}
	.st17{font-size:5.5px;}
	.st18{fill:#040000;}
	.st19{fill:#002F2F;}
	.st20{fill:#0019FF;}
	.st21{fill:#EF37F4;}
	.st22{fill:#F9F9FA;}
	.st23{font-size:5px;}
	.st24{fill:#310204;}
	.st25{fill:#460407;}
	.st26{font-family:'ArialUnicodeMS';}
	.st27{font-size:4px;}
	.st28{fill:none;stroke:#040000;stroke-width:0.72;stroke-miterlimit:10;}
	.st29{fill:#E62C28;}
	.st30{font-size:9px;}
	.st31{fill:none;stroke:#0C0104;stroke-width:0.675;stroke-miterlimit:10;}
	.st32{fill:#040000;stroke:#040000;stroke-width:0.27;stroke-miterlimit:10;}
	.st33{fill:#040000;stroke:#050000;stroke-width:0.27;stroke-miterlimit:10;}
	.st34{fill:#0025FF;}
	.st35{font-size:7.425px;}
	.st36{font-size:7.2px;}
	.st37{fill:none;stroke:#040000;stroke-width:0.7213;stroke-miterlimit:10;}
	.st38{font-size:8.1px;}
	.st39{font-size:7px;}
	.st40{fill:#00040A;}
	.st41{font-size:6.3px;}
	.st42{fill:#040000;stroke:#040000;stroke-width:0.2;stroke-miterlimit:10;}
	.st43{font-family:'ArialMT';}
	.st44{fill:none;stroke:#076BAF;stroke-width:0.6;stroke-miterlimit:10;}
	.st45{font-size:7.5px;}
	.st46{fill:none;stroke:#000000;stroke-width:0.6891;stroke-miterlimit:10;}
	.st47{fill:none;stroke:#F419DF;stroke-width:5;stroke-miterlimit:10;}
	.st48{fill:#F419DF;}
	.st49{fill:#FF1C1D;}
	.st50{fill:#FF0400;}
	.st51{fill:#FF3A3A;}
	.st52{fill:#FF0E0F;}
	.st53{fill:#FF2C2C;}
	.st54{fill:#FF1315;}
	.st55{fill:#FF2829;}
	.st56{fill:#FF070A;}
	.st57{fill:#FF6868;}
	.st58{fill:#FF1616;}
	.st59{fill:#FF6A6A;}
	.st60{fill:#FF7777;}
	.st61{fill:#FF7979;}
	.st62{fill:#FF5A5A;}
	.st63{fill:#FF3535;}
	.st64{fill:#FF4647;}
	.st65{fill:#FF3637;}
	.st66{fill:#FF5353;}
	.st67{fill:#FF7272;}
	.st68{fill:#FF3E3F;}
	.st69{fill:#FF5657;}
	.st70{fill:#FF5252;}
	.st71{fill:#FF2526;}
	.st72{fill:#FF2E2F;}
	.st73{fill:#FF2E2E;}
	.st74{fill:#FF4242;}
	.st75{fill:#FF0B0D;}
	.st76{fill:#FF2021;}
	.st77{fill:#FF4747;}
	.st78{fill:#FF5051;}
	.st79{fill:#FF1819;}
	.st80{fill:#FFE0E0;}
	.st81{fill:#FF292B;}
	.st82{fill:#FF6F70;}
	.st83{fill:#FF0402;}
	.st84{fill:#FF7B7B;}
	.st85{fill:#FF4141;}
	.st86{fill:#FF6464;}
	.st87{fill:#FF4B4B;}
	.st88{fill:#FF4D4D;}
	.st89{fill:#FF8282;}
	.st90{fill:#E72119;}
	.st91{fill:#FF5858;}
	.st92{fill:#FF7676;}
	.st93{fill:#FF6C6D;}
	.st94{fill:#FF5E5E;}
	.st95{fill:#FF9B9B;}
	.st96{fill:#FF0401;}
	.st97{fill:#E72D29;}
	.st98{fill:#FF8080;}
	.st99{fill:#FF0403;}
	.st100{fill:#FF7E7E;}
	.st101{fill:#FF9494;}
	.st102{fill:#E7251F;}
	.st103{fill:#FF1112;}
	.st104{fill:#FF6161;}
	.st105{fill:#FF8788;}
	.st106{fill:#FF3838;}
	.st107{fill:#FF7474;}
	.st108{fill:#FF3D3E;}
	.st109{fill:#FF2727;}
	.st110{fill:#FF1717;}
	.st111{fill:#FF6363;}
	.st112{fill:#FF3B3B;}
	.st113{fill:url(#SVGID_1_);}
</style>
<g id="레이어_2">
</g>
<g id="레이어_3">
	<line class="st0" x1="365" y1="136" x2="350" y2="156"/>
	<line class="st0" x1="321" y1="167" x2="350" y2="156"/>
	<line class="st0" x1="304" y1="54" x2="267" y2="72"/>
	<line class="st1" x1="344" y1="73" x2="304" y2="54"/>
	<line class="st0" x1="344" y1="106" x2="304" y2="54"/>
	<line class="st0" x1="308" y1="117" x2="304" y2="54"/>
	<line class="st0" x1="304" y1="90" x2="304" y2="54"/>
	<line class="st0" x1="261" y1="100" x2="304" y2="54"/>
	<line class="st0" x1="270" y1="73" x2="346" y2="74"/>
	<line class="st0" x1="261" y1="101" x2="267" y2="72"/>
	<line class="st0" x1="274" y1="136" x2="267" y2="72"/>
	<line class="st2" x1="314" y1="146" x2="267" y2="72"/>
	<line class="st2" x1="307.5" y1="117.5" x2="266.5" y2="73.5"/>
	<line class="st2" x1="344.5" y1="104.5" x2="266.5" y2="73.5"/>
	<line class="st2" x1="303.5" y1="90.5" x2="266.5" y2="72.5"/>
	<line class="st2" x1="344.5" y1="73.5" x2="305.5" y2="90.5"/>
	<line class="st2" x1="262.5" y1="101.5" x2="344.5" y2="72.5"/>
	<line class="st2" x1="308" y1="116" x2="344.5" y2="72.5"/>
	<line class="st2" x1="314" y1="148" x2="344" y2="73"/>
	<line class="st2" x1="345" y1="106" x2="344" y2="72"/>
	<line class="st0" x1="339" y1="132" x2="344" y2="73"/>
	<line class="st0" x1="314" y1="146" x2="337" y2="134"/>
	<line class="st3" x1="274" y1="136" x2="339" y2="132"/>
	<line class="st3" x1="314" y1="146" x2="275" y2="136"/>
	<line class="st0" x1="264" y1="165" x2="273" y2="137"/>
	<line class="st0" x1="314" y1="146" x2="264" y2="165"/>
	<line class="st0" x1="261" y1="101" x2="264" y2="163"/>
	<line class="st0" x1="308" y1="117" x2="315" y2="148"/>
	<line class="st2" x1="274" y1="136" x2="305" y2="90"/>
	<line class="st0" x1="340" y1="132" x2="306" y2="117"/>
	<line class="st0" x1="307" y1="90" x2="340" y2="132"/>
	<line class="st2" x1="274" y1="136" x2="306" y2="117"/>
	<line class="st3" x1="262" y1="101" x2="346" y2="106"/>
	<line class="st3" x1="306" y1="117" x2="262" y2="101"/>
	<line class="st3" x1="346" y1="106" x2="307" y2="117"/>
	<line class="st0" x1="339" y1="132" x2="346" y2="106"/>
	<line class="st2" x1="274" y1="136" x2="262" y2="101"/>
	<line class="st0" x1="344" y1="73" x2="274" y2="136"/>
	<line class="st2" x1="344" y1="106" x2="274" y2="136"/>
	<line class="st3" x1="261" y1="101" x2="314" y2="148"/>
	<line class="st2" x1="344" y1="106" x2="314" y2="148"/>
	<line class="st3" x1="306" y1="90" x2="314" y2="146"/>
	<line class="st2" x1="305.5" y1="90.5" x2="262.5" y2="101.5"/>
</g>
<g id="레이어_1">
	<g id="tb17Pn.tif">
		
			<image style="overflow:visible;" width="412" height="41" id="Layer_0_1_" xlink:href="290E27165F92CE74.png"  transform="matrix(0.3155 0 0 0.3155 34 30.0631)">
		</image>
	</g>
	<g>
		<g>
			<path class="st4" d="M6.3,4.8h0.9l2.2,6.6H8.6L7.5,7.7C7.2,6.9,7,6.2,6.8,5.5h0C6.6,6.2,6.4,6.9,6.1,7.7L5,11.3H4.1L6.3,4.8z
				 M5.3,8.7h3v0.7h-3V8.7z"/>
			<path class="st4" d="M10.4,6.5H11l0.1,0.7h0c0.5-0.5,1-0.8,1.6-0.8c1,0,1.5,0.7,1.5,1.9v3.1h-0.8v-3c0-0.9-0.3-1.3-0.9-1.3
				c-0.5,0-0.8,0.3-1.3,0.7v3.5h-0.8V6.5z"/>
			<path class="st4" d="M17.5,8.9c0-1.6,1.1-2.6,2.2-2.6c1.2,0,1.9,0.9,1.9,2.3c0,0.2,0,0.3,0,0.5h-3.3c0.1,1,0.7,1.7,1.6,1.7
				c0.5,0,0.8-0.2,1.2-0.4l0.3,0.5c-0.4,0.3-0.9,0.5-1.6,0.5C18.5,11.5,17.5,10.5,17.5,8.9z M20.9,8.5c0-1-0.4-1.5-1.2-1.5
				c-0.7,0-1.3,0.5-1.4,1.5H20.9z"/>
			<path class="st4" d="M23.7,8.8l-1.5-2.3h0.9l0.7,1.1c0.1,0.3,0.3,0.5,0.5,0.8h0c0.1-0.3,0.3-0.5,0.4-0.8l0.6-1.1h0.9l-1.5,2.4
				l1.6,2.4h-0.9l-0.7-1.1c-0.2-0.3-0.3-0.6-0.5-0.9h0c-0.2,0.3-0.3,0.6-0.5,0.9L23,11.3h-0.9L23.7,8.8z"/>
			<path class="st4" d="M26.9,10.1c0-1.1,0.9-1.6,3-1.8c0-0.6-0.2-1.2-1-1.2c-0.6,0-1.1,0.3-1.4,0.5L27.2,7c0.4-0.3,1.1-0.6,1.9-0.6
				c1.2,0,1.7,0.8,1.7,2v3h-0.7L30,10.8h0c-0.5,0.4-1,0.7-1.6,0.7C27.6,11.5,26.9,11,26.9,10.1z M29.9,10.2V8.8
				C28.3,9,27.8,9.4,27.8,10c0,0.6,0.4,0.8,0.9,0.8C29.1,10.8,29.5,10.6,29.9,10.2z"/>
			<path class="st4" d="M32.3,6.5H33L33,7.2h0c0.4-0.5,0.9-0.8,1.5-0.8c0.7,0,1.1,0.4,1.3,0.9c0.5-0.5,1-0.9,1.6-0.9
				c1,0,1.5,0.7,1.5,1.9v3.1h-0.8v-3c0-0.9-0.3-1.3-0.9-1.3c-0.4,0-0.8,0.2-1.2,0.7v3.5h-0.8v-3c0-0.9-0.3-1.3-0.9-1.3
				c-0.4,0-0.8,0.2-1.2,0.7v3.5h-0.8V6.5z"/>
			<path class="st4" d="M40.6,6.5h0.7L41.3,7h0c0.4-0.4,1-0.7,1.5-0.7c1.3,0,1.9,1,1.9,2.5c0,1.7-1,2.6-2.1,2.6
				c-0.4,0-0.9-0.2-1.3-0.6l0,0.8v1.6h-0.8V6.5z M44,8.8c0-1.1-0.4-1.8-1.3-1.8c-0.4,0-0.8,0.2-1.3,0.7v2.5c0.4,0.4,0.9,0.5,1.2,0.5
				C43.4,10.8,44,10,44,8.8z"/>
			<path class="st4" d="M46.1,10.4V4.2h0.8v6.2c0,0.3,0.1,0.4,0.2,0.4c0,0,0.1,0,0.2,0l0.1,0.6c-0.1,0-0.3,0.1-0.5,0.1
				C46.4,11.5,46.1,11.1,46.1,10.4z"/>
			<path class="st4" d="M48.3,8.9c0-1.6,1.1-2.6,2.2-2.6c1.2,0,1.9,0.9,1.9,2.3c0,0.2,0,0.3,0,0.5h-3.3c0.1,1,0.7,1.7,1.6,1.7
				c0.5,0,0.8-0.2,1.2-0.4l0.3,0.5c-0.4,0.3-0.9,0.5-1.6,0.5C49.3,11.5,48.3,10.5,48.3,8.9z M51.7,8.5c0-1-0.4-1.5-1.2-1.5
				c-0.7,0-1.3,0.5-1.4,1.5H51.7z"/>
			<path class="st4" d="M56.4,10.8L56.4,10.8l-0.1,0.5h-0.7V4.2h0.8v1.9l0,0.9c0.4-0.4,1-0.7,1.5-0.7c1.3,0,1.9,1,1.9,2.5
				c0,1.7-1,2.6-2.1,2.6C57.3,11.5,56.8,11.2,56.4,10.8z M59,8.8c0-1.1-0.4-1.8-1.3-1.8c-0.4,0-0.8,0.2-1.3,0.7v2.5
				c0.4,0.4,0.9,0.5,1.2,0.5C58.4,10.8,59,10,59,8.8z"/>
			<path class="st4" d="M61,5c0-0.3,0.2-0.5,0.6-0.5c0.3,0,0.6,0.2,0.6,0.5c0,0.3-0.2,0.5-0.6,0.5C61.3,5.5,61,5.3,61,5z M61.2,6.5
				H62v4.9h-0.8V6.5z"/>
			<path class="st4" d="M63.3,8.9c0-1.6,1.1-2.6,2.3-2.6c0.6,0,1.1,0.3,1.4,0.6l-0.4,0.5C66.3,7.2,66,7,65.6,7
				c-0.9,0-1.5,0.8-1.5,1.9s0.6,1.9,1.5,1.9c0.4,0,0.8-0.2,1.1-0.5l0.4,0.6c-0.4,0.4-1,0.6-1.6,0.6C64.3,11.5,63.3,10.5,63.3,8.9z"
				/>
			<path class="st4" d="M68.2,10.4V4.2H69v6.2c0,0.3,0.1,0.4,0.2,0.4c0,0,0.1,0,0.2,0l0.1,0.6c-0.1,0-0.3,0.1-0.5,0.1
				C68.4,11.5,68.2,11.1,68.2,10.4z"/>
			<path class="st4" d="M70.7,9.6V6.5h0.8v3c0,0.9,0.3,1.3,0.9,1.3c0.5,0,0.8-0.2,1.3-0.8V6.5h0.8v4.9h-0.7l-0.1-0.8h0
				c-0.5,0.5-0.9,0.9-1.6,0.9C71.1,11.5,70.7,10.8,70.7,9.6z"/>
			<path class="st4" d="M75.6,10.8l0.4-0.5c0.4,0.3,0.9,0.6,1.4,0.6c0.6,0,1-0.3,1-0.8c0-0.5-0.6-0.7-1.1-0.9
				c-0.7-0.2-1.4-0.6-1.4-1.4c0-0.8,0.6-1.4,1.7-1.4c0.6,0,1.1,0.2,1.5,0.5l-0.4,0.5C78.3,7.2,78,7,77.6,7c-0.6,0-0.9,0.3-0.9,0.7
				c0,0.5,0.5,0.6,1.1,0.8c0.7,0.3,1.5,0.5,1.5,1.5c0,0.8-0.6,1.4-1.8,1.4C76.8,11.5,76.1,11.2,75.6,10.8z"/>
			<path class="st4" d="M80.5,9.8V7.2h-0.7V6.5l0.8,0l0.1-1.4h0.7v1.4h1.3v0.7h-1.3v2.7c0,0.6,0.2,0.9,0.8,0.9
				c0.2,0,0.4-0.1,0.6-0.1l0.2,0.6c-0.3,0.1-0.6,0.2-0.9,0.2C80.9,11.5,80.5,10.8,80.5,9.8z"/>
			<path class="st4" d="M83.4,8.9c0-1.6,1.1-2.6,2.2-2.6c1.2,0,1.9,0.9,1.9,2.3c0,0.2,0,0.3,0,0.5h-3.3c0.1,1,0.7,1.7,1.6,1.7
				c0.5,0,0.8-0.2,1.2-0.4l0.3,0.5c-0.4,0.3-0.9,0.5-1.6,0.5C84.4,11.5,83.4,10.5,83.4,8.9z M86.8,8.5c0-1-0.4-1.5-1.2-1.5
				c-0.7,0-1.3,0.5-1.4,1.5H86.8z"/>
			<path class="st4" d="M88.7,6.5h0.7l0.1,0.9h0c0.3-0.6,0.8-1,1.4-1c0.2,0,0.4,0,0.5,0.1l-0.2,0.7c-0.2-0.1-0.3-0.1-0.5-0.1
				c-0.4,0-0.9,0.3-1.2,1.1v3.1h-0.8V6.5z"/>
			<path class="st4" d="M92,7.2c0-0.4,0.3-0.6,0.6-0.6c0.3,0,0.6,0.3,0.6,0.6c0,0.4-0.3,0.6-0.6,0.6C92.3,7.9,92,7.6,92,7.2z
				 M92,10.8c0-0.4,0.3-0.6,0.6-0.6c0.3,0,0.6,0.3,0.6,0.6c0,0.4-0.3,0.6-0.6,0.6C92.3,11.5,92,11.2,92,10.8z"/>
			<path class="st4" d="M4.9,16.2h0.8v1.9l0,1c0.5-0.4,0.9-0.8,1.6-0.8c1,0,1.5,0.7,1.5,1.9v3.1H8v-3c0-0.9-0.3-1.3-0.9-1.3
				c-0.5,0-0.8,0.3-1.3,0.7v3.5H4.9V16.2z"/>
			<path class="st4" d="M9.8,22.8l0.4-0.5c0.4,0.3,0.9,0.6,1.4,0.6c0.6,0,1-0.3,1-0.8c0-0.5-0.6-0.7-1.1-0.9
				c-0.7-0.2-1.4-0.6-1.4-1.4c0-0.8,0.6-1.4,1.7-1.4c0.6,0,1.1,0.2,1.5,0.5l-0.4,0.5c-0.3-0.2-0.7-0.4-1.1-0.4
				c-0.6,0-0.9,0.3-0.9,0.7c0,0.5,0.5,0.6,1.1,0.8c0.7,0.3,1.5,0.5,1.5,1.5c0,0.8-0.6,1.4-1.8,1.4C10.9,23.5,10.3,23.2,9.8,22.8z"/>
			<path class="st4" d="M14.3,22.1c0-1.1,0.9-1.6,3-1.8c0-0.6-0.2-1.2-1-1.2c-0.6,0-1.1,0.3-1.4,0.5L14.5,19
				c0.4-0.3,1.1-0.6,1.9-0.6c1.2,0,1.7,0.8,1.7,2v3h-0.7l-0.1-0.6h0c-0.5,0.4-1,0.7-1.6,0.7C14.9,23.5,14.3,23,14.3,22.1z
				 M17.2,22.2v-1.3c-1.6,0.2-2.2,0.6-2.2,1.2c0,0.6,0.4,0.8,0.9,0.8C16.4,22.8,16.8,22.6,17.2,22.2z"/>
			<path class="st4" d="M19.2,20.5h2.3v0.6h-2.3V20.5z"/>
			<path class="st4" d="M22.7,18.5h0.7l0.1,0.7h0c0.4-0.5,0.9-0.8,1.5-0.8c0.7,0,1.1,0.4,1.3,0.9c0.5-0.5,1-0.9,1.6-0.9
				c1,0,1.5,0.7,1.5,1.9v3.1h-0.8v-3c0-0.9-0.3-1.3-0.9-1.3c-0.4,0-0.8,0.2-1.2,0.7v3.5h-0.8v-3c0-0.9-0.3-1.3-0.9-1.3
				c-0.4,0-0.8,0.2-1.2,0.7v3.5h-0.8V18.5z"/>
			<path class="st4" d="M30.8,17c0-0.3,0.2-0.5,0.6-0.5c0.3,0,0.6,0.2,0.6,0.5c0,0.3-0.2,0.5-0.6,0.5C31.1,17.5,30.8,17.3,30.8,17z
				 M31,18.5h0.8v4.9H31V18.5z"/>
			<path class="st4" d="M33.5,16.8h2.1c1.3,0,2.3,0.5,2.3,1.8c0,1.3-1,1.9-2.3,1.9h-1.2v2.8h-0.8V16.8z M35.5,19.9
				c1,0,1.6-0.4,1.6-1.3c0-0.9-0.6-1.2-1.6-1.2h-1.1v2.4H35.5z M35.4,20.3l0.7-0.4l2,3.4h-0.9L35.4,20.3z"/>
			<path class="st4" d="M38.7,20.5H41v0.6h-2.3V20.5z"/>
			<path class="st4" d="M41.8,22.9c1.9-1.9,3-3.1,3-4.1c0-0.7-0.4-1.2-1.2-1.2c-0.5,0-1,0.3-1.4,0.8l-0.5-0.5c0.5-0.6,1.1-1,1.9-1
				c1.2,0,1.9,0.7,1.9,1.9c0,1.2-1.1,2.4-2.6,4c0.3,0,0.7-0.1,1.1-0.1H46v0.7h-4.1V22.9z"/>
			<path class="st4" d="M46.9,22.8l0.5-0.5c0.3,0.3,0.7,0.5,1,0.5c0.9,0,1.7-0.7,1.7-2.9c0-1.6-0.5-2.4-1.4-2.4
				c-0.6,0-1.1,0.6-1.1,1.4c0,0.8,0.4,1.4,1.2,1.4c0.4,0,0.9-0.2,1.4-0.9l0,0.6c-0.4,0.5-1,0.9-1.5,0.9c-1.1,0-1.8-0.7-1.8-2
				c0-1.2,0.9-2,1.9-2c1.3,0,2.2,1,2.2,3.1c0,2.6-1.2,3.5-2.4,3.5C47.8,23.5,47.3,23.2,46.9,22.8z"/>
			<path class="st4" d="M51.8,20.9c0-1.6,1.1-2.6,2.3-2.6c0.6,0,1.1,0.3,1.4,0.6l-0.4,0.5c-0.3-0.3-0.6-0.4-1-0.4
				c-0.9,0-1.5,0.8-1.5,1.9s0.6,1.9,1.5,1.9c0.4,0,0.8-0.2,1.1-0.5l0.4,0.6c-0.4,0.4-1,0.6-1.6,0.6C52.8,23.5,51.8,22.5,51.8,20.9z"
				/>
			<path class="st4" d="M56.6,18.6c0.5-0.3,0.8-0.7,0.8-1.3l-0.1-0.7l0.4,0.5c-0.1,0.1-0.2,0.2-0.4,0.2c-0.3,0-0.5-0.2-0.5-0.5
				c0-0.3,0.2-0.6,0.5-0.6c0.4,0,0.6,0.3,0.6,0.9c0,0.8-0.4,1.4-1.1,1.8L56.6,18.6z"/>
			<path class="st4" d="M58.7,22.8l0.4-0.5c0.4,0.3,0.9,0.6,1.4,0.6c0.6,0,1-0.3,1-0.8c0-0.5-0.6-0.7-1.1-0.9
				c-0.7-0.2-1.4-0.6-1.4-1.4c0-0.8,0.6-1.4,1.7-1.4c0.6,0,1.1,0.2,1.5,0.5l-0.4,0.5c-0.3-0.2-0.7-0.4-1.1-0.4
				c-0.6,0-0.9,0.3-0.9,0.7c0,0.5,0.5,0.6,1.1,0.8c0.7,0.3,1.5,0.5,1.5,1.5c0,0.8-0.6,1.4-1.8,1.4C59.8,23.5,59.2,23.2,58.7,22.8z"
				/>
			<path class="st4" d="M65.6,21.8v-2.7h-0.7v-0.6l0.8,0l0.1-1.4h0.7v1.4h1.3v0.7h-1.3v2.7c0,0.6,0.2,0.9,0.8,0.9
				c0.2,0,0.4-0.1,0.6-0.1l0.2,0.6c-0.3,0.1-0.6,0.2-0.9,0.2C65.9,23.5,65.6,22.8,65.6,21.8z"/>
			<path class="st4" d="M68.5,22.1c0-1.1,0.9-1.6,3-1.8c0-0.6-0.2-1.2-1-1.2c-0.6,0-1.1,0.3-1.4,0.5L68.7,19
				c0.4-0.3,1.1-0.6,1.9-0.6c1.2,0,1.7,0.8,1.7,2v3h-0.7l-0.1-0.6h0c-0.5,0.4-1,0.7-1.6,0.7C69.1,23.5,68.5,23,68.5,22.1z
				 M71.5,22.2v-1.3c-1.6,0.2-2.2,0.6-2.2,1.2c0,0.6,0.4,0.8,0.9,0.8C70.6,22.8,71,22.6,71.5,22.2z"/>
			<path class="st4" d="M73.9,18.5h0.7l0.1,0.9h0c0.3-0.6,0.8-1,1.4-1c0.2,0,0.4,0,0.5,0.1l-0.2,0.7c-0.2-0.1-0.3-0.1-0.5-0.1
				c-0.4,0-0.9,0.3-1.2,1.1v3.1h-0.8V18.5z"/>
			<path class="st4" d="M77,24.3c0-0.4,0.3-0.8,0.7-1.1v0c-0.2-0.2-0.4-0.4-0.4-0.8c0-0.4,0.3-0.7,0.5-0.9v0
				c-0.3-0.3-0.6-0.7-0.6-1.3c0-1.1,0.8-1.7,1.8-1.7c0.3,0,0.5,0.1,0.7,0.1h1.7v0.6h-1c0.2,0.2,0.4,0.6,0.4,1c0,1-0.8,1.7-1.8,1.7
				c-0.2,0-0.5-0.1-0.7-0.2c-0.2,0.1-0.3,0.3-0.3,0.6c0,0.3,0.2,0.5,0.9,0.5h0.9c1.1,0,1.7,0.4,1.7,1.2c0,0.9-1,1.7-2.5,1.7
				C77.8,25.6,77,25.1,77,24.3z M80.6,24c0-0.4-0.3-0.6-1-0.6h-0.8c-0.2,0-0.4,0-0.6-0.1c-0.3,0.2-0.5,0.5-0.5,0.8
				c0,0.5,0.5,0.9,1.4,0.9C80,25,80.6,24.5,80.6,24z M80,20.1c0-0.7-0.5-1.1-1-1.1s-1,0.4-1,1.1c0,0.7,0.5,1.2,1,1.2
				S80,20.8,80,20.1z"/>
			<path class="st4" d="M82,20.9c0-1.6,1.1-2.6,2.2-2.6c1.2,0,1.9,0.9,1.9,2.3c0,0.2,0,0.3,0,0.5h-3.3c0.1,1,0.7,1.7,1.6,1.7
				c0.5,0,0.8-0.2,1.2-0.4l0.3,0.5c-0.4,0.3-0.9,0.5-1.6,0.5C83,23.5,82,22.5,82,20.9z M85.4,20.5c0-1-0.4-1.5-1.2-1.5
				c-0.7,0-1.3,0.5-1.4,1.5H85.4z"/>
			<path class="st4" d="M87.5,21.8v-2.7h-0.7v-0.6l0.8,0l0.1-1.4h0.7v1.4h1.3v0.7h-1.3v2.7c0,0.6,0.2,0.9,0.8,0.9
				c0.2,0,0.4-0.1,0.6-0.1l0.2,0.6c-0.3,0.1-0.6,0.2-0.9,0.2C87.8,23.5,87.5,22.8,87.5,21.8z"/>
			<path class="st4" d="M90.2,22.8l0.4-0.5c0.4,0.3,0.9,0.6,1.4,0.6c0.6,0,1-0.3,1-0.8c0-0.5-0.6-0.7-1.1-0.9
				c-0.7-0.2-1.4-0.6-1.4-1.4c0-0.8,0.6-1.4,1.7-1.4c0.6,0,1.1,0.2,1.5,0.5l-0.4,0.5c-0.3-0.2-0.7-0.4-1.1-0.4
				c-0.6,0-0.9,0.3-0.9,0.7c0,0.5,0.5,0.6,1.1,0.8c0.7,0.3,1.5,0.5,1.5,1.5c0,0.8-0.6,1.4-1.8,1.4C91.3,23.5,90.6,23.2,90.2,22.8z"
				/>
			<path class="st4" d="M96.9,18.5h0.7l0.1,0.9h0c0.3-0.6,0.8-1,1.4-1c0.2,0,0.4,0,0.5,0.1l-0.2,0.7c-0.2-0.1-0.3-0.1-0.5-0.1
				c-0.4,0-0.9,0.3-1.2,1.1v3.1h-0.8V18.5z"/>
			<path class="st4" d="M100,20.9c0-1.6,1.1-2.6,2.2-2.6c1.2,0,1.9,0.9,1.9,2.3c0,0.2,0,0.3,0,0.5h-3.3c0.1,1,0.7,1.7,1.6,1.7
				c0.5,0,0.8-0.2,1.2-0.4l0.3,0.5c-0.4,0.3-0.9,0.5-1.6,0.5C101.1,23.5,100,22.5,100,20.9z M103.4,20.5c0-1-0.4-1.5-1.2-1.5
				c-0.7,0-1.3,0.5-1.4,1.5H103.4z"/>
			<path class="st4" d="M105,24.3c0-0.4,0.3-0.8,0.7-1.1v0c-0.2-0.2-0.4-0.4-0.4-0.8c0-0.4,0.3-0.7,0.5-0.9v0
				c-0.3-0.3-0.6-0.7-0.6-1.3c0-1.1,0.8-1.7,1.8-1.7c0.3,0,0.5,0.1,0.7,0.1h1.7v0.6h-1c0.2,0.2,0.4,0.6,0.4,1c0,1-0.8,1.7-1.8,1.7
				c-0.2,0-0.5-0.1-0.7-0.2c-0.2,0.1-0.3,0.3-0.3,0.6c0,0.3,0.2,0.5,0.9,0.5h0.9c1.1,0,1.7,0.4,1.7,1.2c0,0.9-1,1.7-2.5,1.7
				C105.8,25.6,105,25.1,105,24.3z M108.6,24c0-0.4-0.3-0.6-1-0.6h-0.8c-0.2,0-0.4,0-0.6-0.1c-0.3,0.2-0.5,0.5-0.5,0.8
				c0,0.5,0.5,0.9,1.4,0.9C108,25,108.6,24.5,108.6,24z M108,20.1c0-0.7-0.5-1.1-1-1.1s-1,0.4-1,1.1c0,0.7,0.5,1.2,1,1.2
				S108,20.8,108,20.1z"/>
			<path class="st4" d="M110.3,21.6v-3.1h0.8v3c0,0.9,0.3,1.3,0.9,1.3c0.5,0,0.8-0.2,1.3-0.8v-3.4h0.8v4.9h-0.7l-0.1-0.8h0
				c-0.5,0.5-0.9,0.9-1.6,0.9C110.8,23.5,110.3,22.8,110.3,21.6z"/>
			<path class="st4" d="M115.8,22.4v-6.1h0.8v6.2c0,0.3,0.1,0.4,0.2,0.4c0,0,0.1,0,0.2,0l0.1,0.6c-0.1,0-0.3,0.1-0.5,0.1
				C116.1,23.5,115.8,23.1,115.8,22.4z"/>
			<path class="st4" d="M118.1,22.1c0-1.1,0.9-1.6,3-1.8c0-0.6-0.2-1.2-1-1.2c-0.6,0-1.1,0.3-1.4,0.5l-0.3-0.6
				c0.4-0.3,1.1-0.6,1.9-0.6c1.2,0,1.7,0.8,1.7,2v3h-0.7l-0.1-0.6h0c-0.5,0.4-1,0.7-1.6,0.7C118.7,23.5,118.1,23,118.1,22.1z
				 M121.1,22.2v-1.3c-1.6,0.2-2.2,0.6-2.2,1.2c0,0.6,0.4,0.8,0.9,0.8C120.2,22.8,120.6,22.6,121.1,22.2z"/>
			<path class="st4" d="M123.6,21.8v-2.7h-0.7v-0.6l0.8,0l0.1-1.4h0.7v1.4h1.3v0.7h-1.3v2.7c0,0.6,0.2,0.9,0.8,0.9
				c0.2,0,0.4-0.1,0.6-0.1l0.2,0.6c-0.3,0.1-0.6,0.2-0.9,0.2C123.9,23.5,123.6,22.8,123.6,21.8z"/>
			<path class="st4" d="M126.4,20.9c0-1.6,1.1-2.6,2.2-2.6c1.2,0,1.9,0.9,1.9,2.3c0,0.2,0,0.3,0,0.5h-3.3c0.1,1,0.7,1.7,1.6,1.7
				c0.5,0,0.8-0.2,1.2-0.4l0.3,0.5c-0.4,0.3-0.9,0.5-1.6,0.5C127.5,23.5,126.4,22.5,126.4,20.9z M129.8,20.5c0-1-0.4-1.5-1.2-1.5
				c-0.7,0-1.3,0.5-1.4,1.5H129.8z"/>
			<path class="st4" d="M131.4,20.9c0-1.6,1-2.6,2.1-2.6c0.6,0,0.9,0.2,1.4,0.6l0-0.8v-1.9h0.8v7.1H135l-0.1-0.6h0
				c-0.4,0.4-0.9,0.7-1.5,0.7C132.2,23.5,131.4,22.5,131.4,20.9z M134.8,22.1v-2.5c-0.4-0.4-0.8-0.5-1.2-0.5c-0.8,0-1.4,0.7-1.4,1.9
				c0,1.2,0.5,1.9,1.3,1.9C134,22.8,134.4,22.5,134.8,22.1z"/>
			<path class="st4" d="M139.2,21.6v-3.1h0.8v3c0,0.9,0.3,1.3,0.9,1.3c0.5,0,0.8-0.2,1.3-0.8v-3.4h0.8v4.9h-0.7l-0.1-0.8h0
				c-0.5,0.5-0.9,0.9-1.6,0.9C139.7,23.5,139.2,22.8,139.2,21.6z"/>
			<path class="st4" d="M144.7,18.5h0.7l0.1,0.7h0c0.5-0.5,1-0.8,1.6-0.8c1,0,1.5,0.7,1.5,1.9v3.1h-0.8v-3c0-0.9-0.3-1.3-0.9-1.3
				c-0.5,0-0.8,0.3-1.3,0.7v3.5h-0.8V18.5z"/>
			<path class="st4" d="M149.9,20.9c0-1.6,1-2.6,2.1-2.6c0.6,0,0.9,0.2,1.4,0.6l0-0.8v-1.9h0.8v7.1h-0.7l-0.1-0.6h0
				c-0.4,0.4-0.9,0.7-1.5,0.7C150.6,23.5,149.9,22.5,149.9,20.9z M153.3,22.1v-2.5c-0.4-0.4-0.8-0.5-1.2-0.5c-0.8,0-1.4,0.7-1.4,1.9
				c0,1.2,0.5,1.9,1.3,1.9C152.5,22.8,152.9,22.5,153.3,22.1z"/>
			<path class="st4" d="M155.4,20.9c0-1.6,1.1-2.6,2.2-2.6c1.2,0,1.9,0.9,1.9,2.3c0,0.2,0,0.3,0,0.5h-3.3c0.1,1,0.7,1.7,1.6,1.7
				c0.5,0,0.8-0.2,1.2-0.4l0.3,0.5c-0.4,0.3-0.9,0.5-1.6,0.5C156.4,23.5,155.4,22.5,155.4,20.9z M158.8,20.5c0-1-0.4-1.5-1.2-1.5
				c-0.7,0-1.3,0.5-1.4,1.5H158.8z"/>
			<path class="st4" d="M160.7,18.5h0.7l0.1,0.9h0c0.3-0.6,0.8-1,1.4-1c0.2,0,0.4,0,0.5,0.1l-0.2,0.7c-0.2-0.1-0.3-0.1-0.5-0.1
				c-0.4,0-0.9,0.3-1.2,1.1v3.1h-0.8V18.5z"/>
			<path class="st4" d="M166.9,22.8L166.9,22.8l-0.1,0.5h-0.7v-7.1h0.8v1.9l0,0.9c0.4-0.4,1-0.7,1.5-0.7c1.3,0,1.9,1,1.9,2.5
				c0,1.7-1,2.6-2.1,2.6C167.9,23.5,167.4,23.2,166.9,22.8z M169.6,20.8c0-1.1-0.4-1.8-1.3-1.8c-0.4,0-0.8,0.2-1.3,0.7v2.5
				c0.4,0.4,0.9,0.5,1.2,0.5C169,22.8,169.6,22,169.6,20.8z"/>
			<path class="st4" d="M171.7,18.5h0.7l0.1,0.9h0c0.3-0.6,0.8-1,1.4-1c0.2,0,0.4,0,0.5,0.1l-0.2,0.7c-0.2-0.1-0.3-0.1-0.5-0.1
				c-0.4,0-0.9,0.3-1.2,1.1v3.1h-0.8V18.5z"/>
			<path class="st4" d="M174.9,22.1c0-1.1,0.9-1.6,3-1.8c0-0.6-0.2-1.2-1-1.2c-0.6,0-1.1,0.3-1.4,0.5l-0.3-0.6
				c0.4-0.3,1.1-0.6,1.9-0.6c1.2,0,1.7,0.8,1.7,2v3H178l-0.1-0.6h0c-0.5,0.4-1,0.7-1.6,0.7C175.5,23.5,174.9,23,174.9,22.1z
				 M177.9,22.2v-1.3c-1.6,0.2-2.2,0.6-2.2,1.2c0,0.6,0.4,0.8,0.9,0.8C177,22.8,177.4,22.6,177.9,22.2z"/>
			<path class="st4" d="M180.1,17c0-0.3,0.2-0.5,0.6-0.5c0.3,0,0.6,0.2,0.6,0.5c0,0.3-0.2,0.5-0.6,0.5
				C180.3,17.5,180.1,17.3,180.1,17z M180.2,18.5h0.8v4.9h-0.8V18.5z"/>
			<path class="st4" d="M182.7,18.5h0.7l0.1,0.7h0c0.5-0.5,1-0.8,1.6-0.8c1,0,1.5,0.7,1.5,1.9v3.1h-0.8v-3c0-0.9-0.3-1.3-0.9-1.3
				c-0.5,0-0.8,0.3-1.3,0.7v3.5h-0.8V18.5z"/>
			<path class="st4" d="M190.3,21.8v-2.7h-0.7v-0.6l0.8,0l0.1-1.4h0.7v1.4h1.3v0.7h-1.3v2.7c0,0.6,0.2,0.9,0.8,0.9
				c0.2,0,0.4-0.1,0.6-0.1l0.2,0.6c-0.3,0.1-0.6,0.2-0.9,0.2C190.7,23.5,190.3,22.8,190.3,21.8z"/>
			<path class="st4" d="M193.5,21.6v-3.1h0.8v3c0,0.9,0.3,1.3,0.9,1.3c0.5,0,0.8-0.2,1.3-0.8v-3.4h0.8v4.9h-0.7l-0.1-0.8h0
				c-0.5,0.5-0.9,0.9-1.6,0.9C193.9,23.5,193.5,22.8,193.5,21.6z"/>
			<path class="st4" d="M199,18.5h0.7l0.1,0.7h0c0.4-0.5,0.9-0.8,1.5-0.8c0.7,0,1.1,0.4,1.3,0.9c0.5-0.5,1-0.9,1.6-0.9
				c1,0,1.5,0.7,1.5,1.9v3.1h-0.8v-3c0-0.9-0.3-1.3-0.9-1.3c-0.4,0-0.8,0.2-1.2,0.7v3.5h-0.8v-3c0-0.9-0.3-1.3-0.9-1.3
				c-0.4,0-0.8,0.2-1.2,0.7v3.5H199V18.5z"/>
			<path class="st4" d="M206.9,20.9c0-1.6,1.1-2.6,2.3-2.6s2.3,0.9,2.3,2.6c0,1.6-1.1,2.5-2.3,2.5S206.9,22.5,206.9,20.9z
				 M210.6,20.9c0-1.1-0.6-1.9-1.4-1.9s-1.4,0.8-1.4,1.9s0.6,1.9,1.4,1.9S210.6,22,210.6,20.9z"/>
			<path class="st4" d="M212.7,18.5h0.7l0.1,0.9h0c0.3-0.6,0.8-1,1.4-1c0.2,0,0.4,0,0.5,0.1l-0.2,0.7c-0.2-0.1-0.3-0.1-0.5-0.1
				c-0.4,0-0.9,0.3-1.2,1.1v3.1h-0.8V18.5z"/>
		</g>
	</g>
	<path class="st5" d="M305.3,92.6c-2.2,0-4.3,0-6.5,0c-1.8,0-2.1-0.3-2.1-1.8c0-0.4,0-0.9,0-1.3c0-1.5,0.4-1.8,2.1-1.9
		c4.4,0,8.7,0,13.1,0c1.7,0,2.1,0.4,2.1,1.9c0,0.3,0,0.6,0,1c0,2-0.2,2.1-2.5,2.1C309.4,92.6,307.3,92.6,305.3,92.6z"/>
	<path class="st5" d="M343.3,75.6c-2.2,0-4.3,0-6.5,0c-1.8,0-2.1-0.3-2.1-1.8c0-0.4,0-0.9,0-1.3c0-1.5,0.4-1.8,2.1-1.9
		c4.4,0,8.7,0,13.1,0c1.7,0,2.1,0.4,2.1,1.9c0,0.3,0,0.6,0,1c0,2-0.2,2.1-2.5,2.1C347.4,75.6,345.3,75.6,343.3,75.6z"/>
	<path class="st6" d="M344.3,108.6c-2.2,0-4.3,0-6.5,0c-1.8,0-2.1-0.3-2.1-1.8c0-0.4,0-0.9,0-1.3c0-1.5,0.4-1.8,2.1-1.9
		c4.4,0,8.7,0,13.1,0c1.7,0,2.1,0.4,2.1,1.9c0,0.3,0,0.6,0,1c0,2-0.2,2.1-2.5,2.1C348.4,108.6,346.3,108.6,344.3,108.6z"/>
	<path class="st5" d="M306.3,119.6c-2.2,0-4.3,0-6.5,0c-1.8,0-2.1-0.3-2.1-1.8c0-0.4,0-0.9,0-1.3c0-1.5,0.4-1.8,2.1-1.9
		c4.4,0,8.7,0,13.1,0c1.7,0,2.1,0.4,2.1,1.9c0,0.3,0,0.6,0,1c0,2-0.2,2.1-2.5,2.1C310.4,119.6,308.3,119.6,306.3,119.6z"/>
	<path class="st7" d="M261.3,103.6c-2.2,0-4.3,0-6.5,0c-1.8,0-2.1-0.3-2.1-1.8c0-0.4,0-0.9,0-1.3c0-1.5,0.4-1.8,2.1-1.9
		c4.4,0,8.7,0,13.1,0c1.7,0,2.1,0.4,2.1,1.9c0,0.3,0,0.6,0,1c0,2-0.2,2.1-2.5,2.1C265.4,103.6,263.3,103.6,261.3,103.6z"/>
	<path class="st6" d="M267.3,74.6c-1.4,0-2.8,0-4.2,0c-1.2,0-1.4-0.3-1.4-1.8c0-0.4,0-0.9,0-1.3c0-1.5,0.3-1.8,1.4-1.9
		c2.8,0,5.7,0,8.5,0c1.1,0,1.4,0.4,1.4,1.9c0,0.3,0,0.6,0,1c0,2-0.1,2.1-1.7,2.1C270,74.6,268.7,74.6,267.3,74.6z"/>
	<path class="st8" d="M303.8,56.6c-1.8,0-3.6,0-5.3,0c-1.5,0-1.7-0.3-1.7-1.8c0-0.4,0-0.9,0-1.3c0-1.5,0.3-1.8,1.7-1.9
		c3.6,0,7.2,0,10.8,0c1.4,0,1.7,0.4,1.7,1.9c0,0.3,0,0.6,0,1c0,2-0.1,2.1-2.1,2.1C307.2,56.6,305.5,56.6,303.8,56.6z"/>
	<path class="st5" d="M273.3,138.6c-1.4,0-2.8,0-4.2,0c-1.2,0-1.4-0.3-1.4-1.8c0-0.4,0-0.9,0-1.3c0-1.5,0.3-1.8,1.4-1.9
		c2.8,0,5.7,0,8.5,0c1.1,0,1.4,0.4,1.4,1.9c0,0.3,0,0.6,0,1c0,2-0.1,2.1-1.7,2.1C276,138.6,274.7,138.6,273.3,138.6z"/>
	<path class="st5" d="M312.3,148.6c-2.2,0-4.3,0-6.5,0c-1.8,0-2.1-0.3-2.1-1.8c0-0.4,0-0.9,0-1.3c0-1.5,0.4-1.8,2.1-1.9
		c4.4,0,8.7,0,13.1,0c1.7,0,2.1,0.4,2.1,1.9c0,0.3,0,0.6,0,1c0,2-0.2,2.1-2.5,2.1C316.4,148.6,314.3,148.6,312.3,148.6z"/>
	<path class="st9" d="M339.3,134.6c-1.9,0-3.8,0-5.7,0c-1.6,0-1.8-0.3-1.8-1.8c0-0.4,0-0.9,0-1.3c0-1.5,0.3-1.8,1.9-1.9
		c3.8,0,7.7,0,11.5,0c1.5,0,1.9,0.4,1.9,1.9c0,0.3,0,0.6,0,1c0,2-0.2,2.1-2.2,2.1C342.9,134.6,341.1,134.6,339.3,134.6z"/>
	<path class="st10" d="M264.3,167.6c-1.7,0-3.3,0-5,0c-1.4,0-1.6-0.3-1.6-1.8c0-0.4,0-0.9,0-1.3c0-1.5,0.3-1.8,1.6-1.9
		c3.3,0,6.7,0,10,0c1.3,0,1.6,0.4,1.6,1.9c0,0.3,0,0.6,0,1c0,2-0.1,2.1-1.9,2.1C267.5,167.6,265.9,167.6,264.3,167.6z"/>
	<path class="st11" d="M189.1,135.1c17.5,0,34.9,0,52.3,0c0-2,0-4,0-5.9c-17.5,0-34.8,0-52.3,0C189.1,131.2,189.1,133.1,189.1,135.1
		z"/>
	<path class="st11" d="M241.4,136.1c-17.5,0-34.9,0-52.3,0c0,2,0,4,0,5.8c17.5,0,34.8,0,52.3,0C241.4,139.9,241.4,138.1,241.4,136.1
		z"/>
	<path class="st11" d="M83.9,134.4c0-2,0-3.9,0-5.9c-2.7,0-5.4,0-8,0c0,2,0,4,0,5.9C78.6,134.4,81.2,134.4,83.9,134.4z"/>
	<path class="st11" d="M101.9,134.4c2.8,0,5.4,0,8,0c0-2,0-3.9,0-5.8c-2.7,0-5.4,0-8,0C101.9,130.6,101.9,132.4,101.9,134.4z"/>
	<path class="st11" d="M118.5,134.4c0-2.1,0-4,0-5.9c-2.6,0-5.1,0-7.6,0c0,2,0,3.9,0,5.9C113.5,134.4,115.9,134.4,118.5,134.4z"/>
	<path class="st11" d="M66.4,128.6c-2.8,0-5.4,0-8,0c0,2,0,4,0,5.9c2.7,0,5.3,0,8,0C66.4,132.5,66.4,130.6,66.4,128.6z"/>
	<path class="st11" d="M40.3,134.4c0-2.1,0-4,0-5.9c-2.7,0-5.3,0-8,0c0,2,0,3.9,0,5.9C35,134.4,37.6,134.4,40.3,134.4z"/>
	<path class="st11" d="M22.9,128.6c-2.8,0-5.4,0-8,0c0,2,0,3.9,0,5.8c2.8,0,5.4,0,8,0C22.9,132.4,22.9,130.6,22.9,128.6z"/>
	<path class="st11" d="M119.4,134.4c2.7,0,5.2,0,7.6,0c0-2,0-4,0-5.8c-2.6,0-5.1,0-7.6,0C119.4,130.5,119.4,132.4,119.4,134.4z"/>
	<path class="st11" d="M171.6,134.4c2.7,0,5.3,0,8,0c0-2,0-3.9,0-5.8c-2.7,0-5.4,0-8,0C171.6,130.6,171.6,132.5,171.6,134.4z"/>
	<path class="st11" d="M145.5,134.4c2.7,0,5.3,0,8,0c0-2,0-3.9,0-5.8c-2.8,0-5.4,0-8,0C145.5,130.6,145.5,132.5,145.5,134.4z"/>
	<path class="st11" d="M136,128.6c-2.7,0-5.3,0-8,0c0,2,0,3.9,0,5.8c2.8,0,5.4,0,8,0C136,132.4,136,130.5,136,128.6z"/>
	<path class="st11" d="M101,128.5c-2.7,0-5.1,0-7.7,0c0,2,0,3.9,0,5.9c2.6,0,5.1,0,7.7,0C101,132.4,101,130.5,101,128.5z"/>
	<path class="st11" d="M41.2,134.4c2.7,0,5.2,0,7.7,0c0-2,0-3.9,0-5.8c-2.6,0-5.1,0-7.7,0C41.2,130.5,41.2,132.4,41.2,134.4z"/>
	<path class="st11" d="M84.8,128.5c0,2.1,0,4,0,5.9c2.6,0,5.1,0,7.6,0c0-2,0-3.9,0-5.9C89.8,128.5,87.4,128.5,84.8,128.5z"/>
	<path class="st11" d="M49.8,128.5c0,2.1,0,4,0,5.9c2.6,0,5.1,0,7.6,0c0-2,0-3.9,0-5.9C54.8,128.5,52.4,128.5,49.8,128.5z"/>
	<path class="st11" d="M31.4,128.6c-2.7,0-5.2,0-7.6,0c0,2,0,4,0,5.8c2.6,0,5.1,0,7.6,0C31.4,132.4,31.4,130.6,31.4,128.6z"/>
	<path class="st11" d="M136.9,134.4c2.7,0,5.2,0,7.6,0c0-2,0-4,0-5.8c-2.6,0-5.1,0-7.6,0C136.9,130.5,136.9,132.4,136.9,134.4z"/>
	<path class="st11" d="M163,134.4c2.6,0,5.1,0,7.6,0c0-2,0-3.9,0-5.8c-2.6,0-5.1,0-7.6,0C163,130.6,163,132.5,163,134.4z"/>
	<path class="st11" d="M180.5,134.4c2.7,0,5.1,0,7.7,0c0-2,0-3.9,0-5.8c-2.6,0-5.1,0-7.7,0C180.5,130.6,180.5,132.4,180.5,134.4z"/>
	<path class="st11" d="M74.9,134.5c0-2.1,0-4,0-5.9c-2.6,0-5.1,0-7.6,0c0,2,0,4,0,5.9C69.9,134.5,72.3,134.5,74.9,134.5z"/>
	<path class="st11" d="M13.9,128.6c-2.6,0-5.1,0-7.6,0c0,2,0,3.9,0,5.8c2.6,0,5.1,0,7.6,0C13.9,132.4,13.9,130.5,13.9,128.6z"/>
	<path d="M189.1,134.4c0-2,0-3.9,0-5.9c17.4,0,34.8,0,52.3,0c0,1.9,0,3.8,0,5.9C224,134.4,206.6,134.4,189.1,134.4z"/>
	<path d="M241.4,135.1c0,2,0,3.9,0,5.8c-17.4,0-34.8,0-52.3,0c0-1.9,0-3.8,0-5.8C206.5,135.1,223.9,135.1,241.4,135.1z"/>
	<path d="M83.9,134.4c-2.7,0-5.2,0-8,0c0-1.9,0-3.8,0-5.9c2.6,0,5.2,0,8,0C83.9,130.5,83.9,132.4,83.9,134.4z"/>
	<path d="M101.9,134.4c0-2,0-3.8,0-5.8c2.6,0,5.3,0,8,0c0,1.9,0,3.8,0,5.8C107.3,134.4,104.7,134.4,101.9,134.4z"/>
	<path d="M118.5,134.4c-2.5,0-5,0-7.6,0c0-2,0-3.9,0-5.9c2.5,0,5,0,7.6,0C118.5,130.4,118.5,132.3,118.5,134.4z"/>
	<path d="M66.4,128.6c0,2,0,3.9,0,5.9c-2.7,0-5.3,0-8,0c0-1.9,0-3.8,0-5.9C61,128.6,63.6,128.6,66.4,128.6z"/>
	<path d="M40.3,134.4c-2.7,0-5.3,0-8,0c0-2,0-3.9,0-5.9c2.6,0,5.2,0,8,0C40.3,130.4,40.3,132.3,40.3,134.4z"/>
	<path d="M22.9,128.6c0,2,0,3.8,0,5.8c-2.7,0-5.3,0-8,0c0-1.9,0-3.8,0-5.8C17.5,128.6,20.1,128.6,22.9,128.6z"/>
	<path d="M119.4,134.4c0-2,0-3.9,0-5.8c2.5,0,5,0,7.6,0c0,1.9,0,3.8,0,5.8C124.6,134.4,122.1,134.4,119.4,134.4z"/>
	<path d="M171.6,134.4c0-2,0-3.8,0-5.8c2.6,0,5.3,0,8,0c0,1.9,0,3.8,0,5.8C176.9,134.4,174.3,134.4,171.6,134.4z"/>
	<path d="M145.5,134.4c0-1.9,0-3.8,0-5.8c2.6,0,5.2,0,8,0c0,1.9,0,3.8,0,5.8C150.9,134.4,148.2,134.4,145.5,134.4z"/>
	<path d="M136,128.6c0,1.9,0,3.8,0,5.8c-2.6,0-5.2,0-8,0c0-1.9,0-3.8,0-5.8C130.7,128.6,133.3,128.6,136,128.6z"/>
	<path d="M101,128.5c0,2,0,3.9,0,5.9c-2.5,0-5,0-7.7,0c0-1.9,0-3.8,0-5.9C95.9,128.5,98.4,128.5,101,128.5z"/>
	<path d="M41.2,134.4c0-2,0-3.8,0-5.8c2.6,0,5.1,0,7.7,0c0,1.9,0,3.8,0,5.8C46.4,134.4,43.9,134.4,41.2,134.4z"/>
	<path d="M84.8,128.5c2.6,0,5,0,7.6,0c0,1.9,0,3.8,0,5.9c-2.5,0-5,0-7.6,0C84.8,132.5,84.8,130.6,84.8,128.5z"/>
	<path d="M49.8,128.5c2.6,0,5,0,7.6,0c0,1.9,0,3.8,0,5.9c-2.5,0-5,0-7.6,0C49.8,132.5,49.8,130.6,49.8,128.5z"/>
	<path d="M31.4,128.6c0,2,0,3.9,0,5.8c-2.5,0-5,0-7.6,0c0-1.9,0-3.8,0-5.8C26.2,128.6,28.7,128.6,31.4,128.6z"/>
	<path d="M162.1,134.4c-2.6,0-5.1,0-7.6,0c0-2,0-3.9,0-5.9c2.5,0,5,0,7.6,0C162.1,130.5,162.1,132.4,162.1,134.4z"/>
	<path d="M136.9,134.4c0-2,0-3.9,0-5.8c2.5,0,5,0,7.6,0c0,1.9,0,3.8,0,5.8C142.1,134.4,139.6,134.4,136.9,134.4z"/>
	<path d="M163,134.4c0-1.9,0-3.8,0-5.8c2.5,0,5,0,7.6,0c0,1.9,0,3.8,0,5.8C168.1,134.4,165.6,134.4,163,134.4z"/>
	<path d="M180.5,134.4c0-2,0-3.8,0-5.8c2.5,0,5,0,7.7,0c0,1.9,0,3.8,0,5.8C185.6,134.4,183.2,134.4,180.5,134.4z"/>
	<path d="M74.9,134.5c-2.6,0-5,0-7.6,0c0-1.9,0-3.8,0-5.9c2.5,0,5,0,7.6,0C74.9,130.5,74.9,132.4,74.9,134.5z"/>
	<path d="M13.9,128.6c0,1.9,0,3.8,0,5.8c-2.5,0-5,0-7.6,0c0-1.9,0-3.8,0-5.8C8.8,128.6,11.3,128.6,13.9,128.6z"/>
	<path class="st11" d="M190.8,119.2c0.9-0.8,1.4-1.5,2-1.6c1.1-0.2,1.5,0.7,1.3,1.5c-0.1,0.6-0.8,1.4-1.2,1.5
		C192.4,120.7,191.8,119.9,190.8,119.2z"/>
	<path class="st11" d="M83.9,140.9c0-2,0-3.9,0-5.9c-2.7,0-5.4,0-8,0c0,2,0,4,0,5.9C78.6,140.9,81.2,140.9,83.9,140.9z"/>
	<path class="st11" d="M101.9,140.9c2.8,0,5.4,0,8,0c0-2,0-3.9,0-5.8c-2.7,0-5.4,0-8,0C101.9,137.1,101.9,139,101.9,140.9z"/>
	<path class="st11" d="M118.5,141c0-2.1,0-4,0-5.9c-2.6,0-5.1,0-7.6,0c0,2,0,3.9,0,5.9C113.5,141,115.9,141,118.5,141z"/>
	<path class="st11" d="M66.4,135.1c-2.8,0-5.4,0-8,0c0,2,0,4,0,5.9c2.7,0,5.3,0,8,0C66.4,139,66.4,137.1,66.4,135.1z"/>
	<path class="st11" d="M40.3,141c0-2.1,0-4,0-5.9c-2.7,0-5.3,0-8,0c0,2,0,3.9,0,5.9C35,141,37.6,141,40.3,141z"/>
	<path class="st11" d="M22.9,135.1c-2.8,0-5.4,0-8,0c0,2,0,3.9,0,5.8c2.8,0,5.4,0,8,0C22.9,138.9,22.9,137.1,22.9,135.1z"/>
	<path class="st11" d="M119.4,140.9c2.7,0,5.2,0,7.6,0c0-2,0-4,0-5.8c-2.6,0-5.1,0-7.6,0C119.4,137,119.4,138.9,119.4,140.9z"/>
	<path class="st11" d="M171.6,140.9c2.7,0,5.3,0,8,0c0-2,0-3.9,0-5.8c-2.7,0-5.4,0-8,0C171.6,137.1,171.6,139,171.6,140.9z"/>
	<path class="st11" d="M145.5,140.9c2.7,0,5.3,0,8,0c0-2,0-3.9,0-5.8c-2.8,0-5.4,0-8,0C145.5,137.1,145.5,139,145.5,140.9z"/>
	<path class="st11" d="M136,135.1c-2.7,0-5.3,0-8,0c0,2,0,3.9,0,5.8c2.8,0,5.4,0,8,0C136,138.9,136,137,136,135.1z"/>
	<path class="st11" d="M101,135.1c-2.7,0-5.1,0-7.7,0c0,2,0,3.9,0,5.9c2.6,0,5.1,0,7.7,0C101,138.9,101,137,101,135.1z"/>
	<path class="st11" d="M41.2,140.9c2.7,0,5.2,0,7.7,0c0-2,0-3.9,0-5.8c-2.6,0-5.1,0-7.7,0C41.2,137.1,41.2,138.9,41.2,140.9z"/>
	<path class="st11" d="M84.8,135.1c0,2.1,0,4,0,5.9c2.6,0,5.1,0,7.6,0c0-2,0-3.9,0-5.9C89.8,135.1,87.4,135.1,84.8,135.1z"/>
	<path class="st11" d="M49.8,135.1c0,2.1,0,4,0,5.9c2.6,0,5.1,0,7.6,0c0-2,0-3.9,0-5.9C54.8,135.1,52.4,135.1,49.8,135.1z"/>
	<path class="st11" d="M31.4,135.1c-2.7,0-5.2,0-7.6,0c0,2,0,4,0,5.8c2.6,0,5.1,0,7.6,0C31.4,139,31.4,137.1,31.4,135.1z"/>
	<path class="st11" d="M136.9,140.9c2.7,0,5.2,0,7.6,0c0-2,0-4,0-5.8c-2.6,0-5.1,0-7.6,0C136.9,137,136.9,138.9,136.9,140.9z"/>
	<path class="st11" d="M163,140.9c2.6,0,5.1,0,7.6,0c0-2,0-3.9,0-5.8c-2.6,0-5.1,0-7.6,0C163,137.1,163,139,163,140.9z"/>
	<path class="st11" d="M180.5,140.9c2.7,0,5.1,0,7.7,0c0-2,0-3.9,0-5.8c-2.6,0-5.1,0-7.7,0C180.5,137.1,180.5,139,180.5,140.9z"/>
	<path class="st11" d="M74.9,141c0-2.1,0-4,0-5.9c-2.6,0-5.1,0-7.6,0c0,2,0,4,0,5.9C69.9,141,72.3,141,74.9,141z"/>
	<path class="st11" d="M13.9,135.1c-2.6,0-5.1,0-7.6,0c0,2,0,3.9,0,5.8c2.6,0,5.1,0,7.6,0C13.9,138.9,13.9,137,13.9,135.1z"/>
	<path d="M83.9,140.9c-2.7,0-5.2,0-8,0c0-1.9,0-3.8,0-5.9c2.6,0,5.2,0,8,0C83.9,137,83.9,138.9,83.9,140.9z"/>
	<path class="st12" d="M101.9,140.9c0-2,0-3.8,0-5.8c2.6,0,5.3,0,8,0c0,1.9,0,3.8,0,5.8C107.3,140.9,104.7,140.9,101.9,140.9z"/>
	<path class="st12" d="M118.5,141c-2.5,0-5,0-7.6,0c0-2,0-3.9,0-5.9c2.5,0,5,0,7.6,0C118.5,136.9,118.5,138.9,118.5,141z"/>
	<path class="st12" d="M66.4,135.1c0,2,0,3.9,0,5.9c-2.7,0-5.3,0-8,0c0-1.9,0-3.8,0-5.9C61,135.1,63.6,135.1,66.4,135.1z"/>
	<path d="M40.3,141c-2.7,0-5.3,0-8,0c0-2,0-3.9,0-5.9c2.6,0,5.2,0,8,0C40.3,137,40.3,138.9,40.3,141z"/>
	<path d="M22.9,135.1c0,2,0,3.8,0,5.8c-2.7,0-5.3,0-8,0c0-1.9,0-3.8,0-5.8C17.5,135.1,20.1,135.1,22.9,135.1z"/>
	<path class="st12" d="M119.4,140.9c0-2,0-3.9,0-5.8c2.5,0,5,0,7.6,0c0,1.9,0,3.8,0,5.8C124.6,140.9,122.1,140.9,119.4,140.9z"/>
	<path class="st12" d="M171.6,140.9c0-2,0-3.8,0-5.8c2.6,0,5.3,0,8,0c0,1.9,0,3.8,0,5.8C176.9,140.9,174.3,140.9,171.6,140.9z"/>
	<path class="st12" d="M145.5,140.9c0-1.9,0-3.8,0-5.8c2.6,0,5.2,0,8,0c0,1.9,0,3.8,0,5.8C150.9,140.9,148.2,140.9,145.5,140.9z"/>
	<path d="M136,135.1c0,1.9,0,3.8,0,5.8c-2.6,0-5.2,0-8,0c0-1.9,0-3.8,0-5.8C130.7,135.1,133.3,135.1,136,135.1z"/>
	<path class="st12" d="M101,135.1c0,2,0,3.9,0,5.9c-2.5,0-5,0-7.7,0c0-1.9,0-3.8,0-5.9C95.9,135.1,98.4,135.1,101,135.1z"/>
	<path d="M41.2,140.9c0-2,0-3.8,0-5.8c2.6,0,5.1,0,7.7,0c0,1.9,0,3.8,0,5.8C46.4,140.9,43.9,140.9,41.2,140.9z"/>
	<path class="st12" d="M84.8,135.1c2.6,0,5,0,7.6,0c0,1.9,0,3.8,0,5.9c-2.5,0-5,0-7.6,0C84.8,139,84.8,137.1,84.8,135.1z"/>
	<path class="st12" d="M49.8,135.1c2.6,0,5,0,7.6,0c0,1.9,0,3.8,0,5.9c-2.5,0-5,0-7.6,0C49.8,139,49.8,137.1,49.8,135.1z"/>
	<path d="M31.4,135.1c0,2,0,3.9,0,5.8c-2.5,0-5,0-7.6,0c0-1.9,0-3.8,0-5.8C26.2,135.1,28.7,135.1,31.4,135.1z"/>
	<path class="st12" d="M162.1,141c-2.6,0-5.1,0-7.6,0c0-2,0-3.9,0-5.9c2.5,0,5,0,7.6,0C162.1,137,162.1,138.9,162.1,141z"/>
	<path d="M136.9,140.9c0-2,0-3.9,0-5.8c2.5,0,5,0,7.6,0c0,1.9,0,3.8,0,5.8C142.1,140.9,139.6,140.9,136.9,140.9z"/>
	<path class="st12" d="M163,140.9c0-1.9,0-3.8,0-5.8c2.5,0,5,0,7.6,0c0,1.9,0,3.8,0,5.8C168.1,140.9,165.6,140.9,163,140.9z"/>
	<path class="st12" d="M180.5,140.9c0-2,0-3.8,0-5.8c2.5,0,5,0,7.7,0c0,1.9,0,3.8,0,5.8C185.6,140.9,183.2,140.9,180.5,140.9z"/>
	<path d="M74.9,141c-2.6,0-5,0-7.6,0c0-1.9,0-3.8,0-5.9c2.5,0,5,0,7.6,0C74.9,137,74.9,138.9,74.9,141z"/>
	<path d="M13.9,135.1c0,1.9,0,3.8,0,5.8c-2.5,0-5,0-7.6,0c0-1.9,0-3.8,0-5.8C8.8,135.1,11.3,135.1,13.9,135.1z"/>
	<text transform="matrix(1 0 0 0.9 6.2559 133.5996)" class="st13 st14 st15">10</text>
	<text transform="matrix(1 0 0 0.9 17.2559 133.5996)" class="st13 st14 st15">9</text>
	<text transform="matrix(1 0 0 0.9 26.2559 133.5996)" class="st13 st14 st15">9</text>
	<text transform="matrix(1 0 0 0.9 34.2559 133.5996)" class="st13 st14 st15">9</text>
	<text transform="matrix(1 0 0 0.9 43.2559 133.5996)" class="st13 st14 st15">9</text>
	<text transform="matrix(1 0 0 0.9 52.2559 133.5996)" class="st13 st14 st15">9</text>
	<text transform="matrix(1 0 0 0.9 61.2559 133.5996)" class="st13 st14 st15">9</text>
	<text transform="matrix(1 0 0 0.9 69.2559 133.5996)" class="st13 st14 st15">8</text>
	<text transform="matrix(1 0 0 0.9 78.2559 133.5996)" class="st13 st14 st15">7</text>
	<text transform="matrix(1 0 0 0.9 87.2559 133.5996)" class="st13 st14 st15">6</text>
	<text transform="matrix(1 0 0 0.9 95.2559 133.5996)" class="st13 st14 st15">3</text>
	<text transform="matrix(1 0 0 0.9 104.2559 133.5996)" class="st13 st14 st15">2</text>
	<text transform="matrix(1 0 0 0.9 112.2559 133.5996)" class="st13 st14 st15">1</text>
	<text transform="matrix(1 0 0 0.9 121.2559 133.5996)" class="st13 st14 st15">1</text>
	<text transform="matrix(1 0 0 0.9 130.3315 133.5996)" class="st13 st14 st15">0</text>
	<text transform="matrix(1 0 0 0.9 139.2559 133.5996)" class="st13 st14 st15">0</text>
	<text transform="matrix(1 0 0 0.9 147.8315 133.5996)" class="st13 st14 st15">0</text>
	<text transform="matrix(1 0 0 0.9 156.5815 133.5996)" class="st13 st14 st15">0</text>
	<text transform="matrix(1 0 0 0.9 165.5059 133.5996)" class="st13 st14 st15">0</text>
	<text transform="matrix(1 0 0 0.9 174.0815 133.5996)" class="st13 st14 st15">0</text>
	<text transform="matrix(1 0 0 0.9 182.8315 133.5996)" class="st13 st14 st15">0</text>
	<text transform="matrix(1 0 0 0.9 8.2002 139.6367)" class="st16 st14 st17">S</text>
	<text transform="matrix(1 0 0 0.9 17.2002 139.6367)" class="st16 st14 st17">S</text>
	<text transform="matrix(1 0 0 0.9 26.2002 139.6367)" class="st16 st14 st17">S</text>
	<text transform="matrix(1 0 0 0.9 34.2002 139.6367)" class="st16 st14 st17">S</text>
	<text transform="matrix(1 0 0 0.9 43.2002 139.6367)" class="st16 st14 st17">S</text>
	<text transform="matrix(1 0 0 0.9 69.2002 139.6367)" class="st16 st14 st17">S</text>
	<text transform="matrix(1 0 0 0.9 78.2002 139.6367)" class="st16 st14 st17">S</text>
	<text transform="matrix(1 0 0 0.9 129.2002 139.6367)" class="st16 st14 st17">W</text>
	<text transform="matrix(1 0 0 0.9 138.2002 139.6367)" class="st16 st14 st17">W</text>
	<text transform="matrix(1 0 0 0.9 52.5845 139.6367)" class="st18 st14 st17">-</text>
	<text transform="matrix(1 0 0 0.9 61.5845 139.6367)" class="st18 st14 st17">-</text>
	<text transform="matrix(1 0 0 0.9 87.5845 139.6367)" class="st18 st14 st17">-</text>
	<text transform="matrix(1 0 0 0.9 96.5845 139.6367)" class="st18 st14 st17">-</text>
	<text transform="matrix(1 0 0 0.9 104.5845 139.6367)" class="st18 st14 st17">-</text>
	<text transform="matrix(1 0 0 0.9 113.5845 139.6367)" class="st18 st14 st17">-</text>
	<text transform="matrix(1 0 0 0.9 122.0845 139.6367)" class="st18 st14 st17">-</text>
	<text transform="matrix(1 0 0 0.9 148.5845 139.6367)" class="st19 st14 st17">-</text>
	<text transform="matrix(1 0 0 0.9 157.5845 139.6367)" class="st18 st14 st17">-</text>
	<text transform="matrix(1 0 0 0.9 165.5845 139.6367)" class="st18 st14 st17">-</text>
	<text transform="matrix(1 0 0 0.9 174.5845 139.6367)" class="st18 st14 st17">-</text>
	<text transform="matrix(1 0 0 0.9 183.0845 139.6367)" class="st18 st14 st17">-</text>
	<text transform="matrix(0.88 0 0 0.9 189.8315 132.9367)" class="st13 st14 st17">Node Degree</text>
	<text transform="matrix(0.88 0 0 0.9 189.8315 139.6367)" class="st16 st14 st17">miRTarBase Evidence</text>
	<text transform="matrix(1 0 0 0.9 190.8315 57.5996)" class="st20 st14 st17">19728_4</text>
	<text transform="matrix(1 0 0 0.9 190.8315 64.5996)" class="st20 st14 st17">30563_1</text>
	<text transform="matrix(1 0 0 0.9 190.8315 71.5996)" class="st20 st14 st17">30563_3</text>
	<text transform="matrix(1 0 0 0.9 190.8315 78.5996)" class="st20 st14 st17">35493_4</text>
	<text transform="matrix(1 0 0 0.9 190.8315 85.5996)" class="st20 st14 st17">35493_5</text>
	<text transform="matrix(1 0 0 0.9 190.8315 92.1367)" class="st20 st14 st17">35493_6</text>
	<text transform="matrix(1 0 0 0.9 190.8315 98.5996)" class="st20 st14 st17">35493_7</text>
	<text transform="matrix(1 0 0 0.9 190.8315 105.5996)" class="st20 st14 st17">35493_8</text>
	<text transform="matrix(1 0 0 0.9 190.8315 112.5996)" class="st20 st14 st17">7696_1</text>
	<text transform="matrix(1 0 0 0.9 190.8315 119.5996)" class="st20 st14 st17">7696_2</text>
	<text transform="matrix(1 0 0 0.9 190.8315 126.1367)" class="st20 st14 st17">7696_3</text>
	<text transform="matrix(0 -1 0.9 0 11.832 168.5996)" class="st20 st14 st17">COL4A1</text>
	<text transform="matrix(0 -1 0.9 0 20.832 168.5996)" class="st20 st14 st17">COL1A1</text>
	<text transform="matrix(0 -1 0.9 0 29.832 168.5996)" class="st20 st14 st17">COL1A2</text>
	<text transform="matrix(0 -1 0.9 0 37.832 168.5996)" class="st20 st14 st17">COL3A1</text>
	<text transform="matrix(0 -1 0.9 0 46.832 168.5996)" class="st20 st14 st17">COL4A2</text>
	<text transform="matrix(0 -1 0.9 0 55.832 168.5996)" class="st20 st14 st17">COL6A3</text>
	<text transform="matrix(0 -1 0.9 0 64.832 168.5996)" class="st20 st14 st17">NID1</text>
	<text transform="matrix(0 -1 0.9 0 72.832 168.5996)" class="st20 st14 st17">LOX</text>
	<text transform="matrix(0 -1 0.9 0 81.832 168.5996)" class="st20 st14 st17">LAMC1</text>
	<text transform="matrix(0 -1 0.9 0 89.832 168.5996)" class="st20 st14 st17">FSTL1</text>
	<text transform="matrix(0 -1 0.9 0 98.832 168.5996)" class="st20 st14 st17">PXDN</text>
	<text transform="matrix(0 -1 0.9 0 107.832 168.5996)" class="st20 st14 st17">PPIC</text>
	<text transform="matrix(0 -1 0.9 0 116.832 168.5996)" class="st20 st14 st17">CRISPLD1</text>
	<text transform="matrix(0 -1 0.9 0 124.832 168.5996)" class="st20 st14 st17">SEC11A</text>
	<text transform="matrix(0 -1 0.9 0 133.832 168.5996)" class="st20 st14 st17">DYNLT1</text>
	<text transform="matrix(0 -1 0.9 0 142.832 168.5996)" class="st20 st14 st17">FREM2</text>
	<text transform="matrix(0 -1 0.9 0 150.832 168.5996)" class="st20 st14 st17">GLIS3</text>
	<text transform="matrix(0 -1 0.9 0 159.832 168.5996)" class="st20 st14 st17">GPX7</text>
	<text transform="matrix(0 -1 0.9 0 168.832 168.5996)" class="st20 st14 st17">MEST</text>
	<text transform="matrix(0 -1 0.9 0 177.832 168.5996)" class="st20 st14 st17">OSTC</text>
	<text transform="matrix(0 -1 0.9 0 186.832 168.5996)" class="st20 st14 st17">PTX3</text>
	<polygon class="st21" points="194,143 194,173 210,173 210,143 205,143 205,142 199,142 199,143 	"/>
	<text transform="matrix(0 -1 0.9 0 198.2002 168.7998)"><tspan x="0" y="0" class="st22 st14 st23">Bicluster</tspan><tspan x="0" y="5.8" class="st22 st14 st23">Network</tspan><tspan x="0" y="11.6" class="st22 st14 st23">Review</tspan></text>
	<path class="st24" d="M319.3,169.6c-2.7,0-5.3,0-8,0c-2.2,0-2.6-0.3-2.6-1.8c0-0.4,0-0.9,0-1.3c0-1.5,0.5-1.8,2.6-1.9
		c5.4,0,10.7,0,16.1,0c2.1,0,2.6,0.4,2.6,1.9c0,0.3,0,0.6,0,1c0,2-0.2,2.1-3.1,2.1C324.3,169.6,321.8,169.6,319.3,169.6z"/>
	<path class="st25" d="M350.3,158.6c-1.4,0-2.8,0-4.2,0c-1.2,0-1.4-0.3-1.4-1.8c0-0.4,0-0.9,0-1.3c0-1.5,0.3-1.8,1.4-1.9
		c2.8,0,5.7,0,8.5,0c1.1,0,1.4,0.4,1.4,1.9c0,0.3,0,0.6,0,1c0,2-0.1,2.1-1.7,2.1C353,158.6,351.7,158.6,350.3,158.6z"/>
	<path class="st24" d="M365.3,136.6c-2.2,0-4.3,0-6.5,0c-1.8,0-2.1-0.3-2.1-1.8c0-0.4,0-0.9,0-1.3c0-1.5,0.4-1.8,2.1-1.9
		c4.4,0,8.7,0,13.1,0c1.7,0,2.1,0.4,2.1,1.9c0,0.3,0,0.6,0,1c0,2-0.2,2.1-2.5,2.1C369.4,136.6,367.3,136.6,365.3,136.6z"/>
	<text transform="matrix(1 0 0 1 298 55.6001)" class="st11 st26 st27">FSTL1</text>
	<text transform="matrix(1 0 0 1 263 73.6001)" class="st11 st26 st27">LOX</text>
	<text transform="matrix(1 0 0 1 335.6291 74.6001)" class="st11 st26 st27">COL6A3</text>
	<text transform="matrix(1 0 0 1 297.6291 91.6001)" class="st11 st26 st27">COL3A1</text>
	<text transform="matrix(1 0 0 1 253.6291 102.6001)" class="st11 st26 st27">COL4A1</text>
	<text transform="matrix(1 0 0 1 298.6291 118.6001)" class="st11 st26 st27">COL1A1</text>
	<text transform="matrix(1 0 0 1 336.6291 107.6001)" class="st11 st26 st27">COL1A2</text>
	<text transform="matrix(1 0 0 1 304.6291 147.6001)" class="st11 st26 st27">COL4A2</text>
	<text transform="matrix(1 0 0 1 268.6291 137.6001)" class="st11 st26 st27">NID1</text>
	<text transform="matrix(1 0 0 1 332.6291 133.6001)" class="st11 st26 st27">LAMC1</text>
	<text transform="matrix(1 0 0 1 258.6291 166.6001)" class="st11 st26 st27">PXDN</text>
	<text transform="matrix(1 0 0 1 357.6291 135.6001)" class="st11 st26 st27">SEC11A</text>
	<text transform="matrix(1 0 0 1 345.6291 157.6001)" class="st11 st26 st27">PPIC</text>
	<text transform="matrix(1 0 0 1 309.6291 168.6001)" class="st11 st26 st27">CRISPLD1</text>
	<line class="st28" x1="8.2" y1="193.7" x2="336.2" y2="193.7"/>
	<text transform="matrix(1 0 0 1 141.7832 201.8442)" class="st29 st14 st30">Condition Details</text>
	<line class="st31" x1="44.7" y1="204.5" x2="183.2" y2="204.5"/>
	<line class="st31" x1="9.1" y1="214.4" x2="42.8" y2="214.8"/>
	<line class="st31" x1="44.7" y1="214.4" x2="183.2" y2="214.4"/>
	<line class="st31" x1="9.1" y1="204.5" x2="9.1" y2="214.4"/>
	<line class="st31" x1="42.4" y1="204.5" x2="42.4" y2="214.4"/>
	<line class="st31" x1="45.1" y1="204.5" x2="45.1" y2="214.4"/>
	<line class="st31" x1="183.2" y1="204.5" x2="183.2" y2="214.4"/>
	<line class="st31" x1="186.9" y1="204.5" x2="186.9" y2="214.4"/>
	<line class="st31" x1="334.9" y1="204.5" x2="334.9" y2="214.4"/>
	<text transform="matrix(1 0 0 1 10.749 212.6445)" class="st32 st26 st30">Symbol</text>
	<text transform="matrix(1 0 0 1 99.8486 212.6445)" class="st32 st26 st30">Control</text>
	<text transform="matrix(1 0 0 1 250.1489 212.6445)" class="st33 st26 st30">Test</text>
	<text transform="matrix(1 0 0 1 9.8477 224.2231)" class="st34 st14 st35">19728_4</text>
	<text transform="matrix(1 0 0 1 9.8477 233.6729)" class="st34 st14 st35">30563_1</text>
	<text transform="matrix(1 0 0 1 9.8477 243.123)" class="st34 st14 st35">30563_3</text>
	<text transform="matrix(1 0 0 1 9.8477 252.5732)" class="st34 st14 st35">35493_4</text>
	<text transform="matrix(1 0 0 1 9.8477 262.0229)" class="st34 st14 st35">35493_5</text>
	<text transform="matrix(1 0 0 1 9.8477 270.8496)" class="st34 st14 st35">35493_6</text>
	<text transform="matrix(1 0 0 1 9.8477 279.5732)" class="st34 st14 st35">35493_7</text>
	<text transform="matrix(1 0 0 1 9.8477 289.0234)" class="st34 st14 st35">35493_8</text>
	<text transform="matrix(1 0 0 1 9.8477 298.4736)" class="st34 st14 st35">7696_1</text>
	<text transform="matrix(1 0 0 1 9.8477 307.9229)" class="st34 st14 st35">7696_2</text>
	<text transform="matrix(1 0 0 1 9.8477 316.9229)" class="st34 st14 st35">7696_3</text>
	<text transform="matrix(1 0 0 1 46.7476 224.2231)" class="st18 st26 st36">pooled normal brain tissue</text>
	<line class="st31" x1="9.1" y1="204.5" x2="42.4" y2="204.5"/>
	<line class="st31" x1="238.1" y1="270.2" x2="238.1" y2="271.1"/>
	<text transform="matrix(1 0 0 1 46.7476 233.6733)" class="st18 st26 st36">Human normal brain</text>
	<text transform="matrix(1 0 0 1 46.7476 243.123)" class="st18 st26 st36">Human normal brain</text>
	<text transform="matrix(1 0 0 1 46.7476 252.5732)" class="st18 st26 st36">normal brain control, cerebellum, pediatric</text>
	<text transform="matrix(1 0 0 1 46.7476 262.0234)" class="st18 st26 st36">normal brain control, frontal, pediatric</text>
	<text transform="matrix(1 0 0 1 46.7476 270.8496)" class="st18 st26 st36">normal brain control, occipital, pediatric</text>
	<text transform="matrix(1 0 0 1 46.7476 279.5732)" class="st18 st26 st36">normal brain control, parietal, pediatric</text>
	<text transform="matrix(1 0 0 1 46.7476 289.0234)" class="st18 st26 st36">normal brain control, temporal, pediatric</text>
	<text transform="matrix(1 0 0 1 46.7476 298.4736)" class="st18 st26 st36">non-tumor, epilepsy</text>
	<text transform="matrix(1 0 0 1 46.7476 307.9229)" class="st18 st26 st36">non-tumor, epilepsy</text>
	<text transform="matrix(1 0 0 1 46.7476 316.9229)" class="st18 st26 st36">non-tumor, epilepsy</text>
	<text transform="matrix(1 0 0 1 187.1479 225.123)" class="st18 st26 st36">Glioblastoma multiforme (GBM) gliomlastomas</text>
	<text transform="matrix(1 0 0 1 187.1479 234.5732)" class="st18 st26 st36">Human brain tumor, glioblastoma</text>
	<text transform="matrix(1 0 0 1 187.1479 244.0234)" class="st18 st26 st36">Human brain tumor, schwannoma</text>
	<text transform="matrix(1 0 0 1 187.1479 253.4731)" class="st18 st26 st36">brain tumor, atypical teratoid / rhabdoid tumor</text>
	<text transform="matrix(1 0 0 1 187.1479 262.9233)" class="st18 st26 st36">brain tumor, atypical teratoid / rhabdoid tumor</text>
	<text transform="matrix(1 0 0 1 187.1479 271.749)" class="st18 st26 st36">brain tumor, atypical teratoid / rhabdoid tumor</text>
	<text transform="matrix(1 0 0 1 187.1479 280.4736)" class="st18 st26 st36">brain tumor, atypical teratoid / rhabdoid tumor</text>
	<text transform="matrix(1 0 0 1 187.1479 289.9229)" class="st18 st26 st36">brain tumor, atypical teratoid / rhabdoid tumor</text>
	<text transform="matrix(1 0 0 1 187.1479 299.373)" class="st18 st26 st36">GBM, radiotherapy; treated</text>
	<text transform="matrix(1 0 0 1 187.1479 308.8232)" class="st18 st26 st36">GBM, TMZ/radiotherapy; treated</text>
	<text transform="matrix(1 0 0 1 187.1479 317.8232)" class="st18 st26 st36">Recurrent GBM, TMZ/radiotherapy; treated</text>
	<line class="st31" x1="186.9" y1="204.5" x2="334.9" y2="204.5"/>
	<line class="st31" x1="186.9" y1="214.4" x2="334.9" y2="214.4"/>
	<line class="st28" x1="8.2" y1="322.4" x2="336.2" y2="322.4"/>
	<line class="st37" x1="7.8" y1="193.5" x2="7.8" y2="322.6"/>
	<line class="st37" x1="336.2" y1="193.5" x2="336.2" y2="322.6"/>
	<line class="st28" x1="8.6" y1="329" x2="372.5" y2="329"/>
	<text transform="matrix(1 0 0 1 123.9644 337.1797)" class="st29 st14 st30">Function Enrichment Test</text>
	<line class="st31" x1="275.7" y1="339.8" x2="304.5" y2="339.8"/>
	<line class="st31" x1="275.7" y1="349.7" x2="304.5" y2="349.7"/>
	<line class="st31" x1="9.4" y1="339.8" x2="9.4" y2="349.7"/>
	<line class="st31" x1="271.6" y1="339.8" x2="271.6" y2="349.7"/>
	<line class="st31" x1="275.7" y1="339.6" x2="275.7" y2="349.5"/>
	<text transform="matrix(1 0 0 1 116.3989 347.0791)" class="st32 st26 st38">Pathway</text>
	<g>
		<text transform="matrix(0.95 0 0 1 10.1978 359.5586)" class="st34 st14 st39">SCHUETZ_BREAST_CANCER_DUCTAL_INVASIVE_UP (C2)</text>
	</g>
	<g>
		<text transform="matrix(0.95 0 0 1 10.1978 369.0078)" class="st34 st14 st39">YAO_TEMPORAL_RESPONSE_TO_PROGESTERONE_CLUSTER_16 (C2)</text>
	</g>
	<g>
		<text transform="matrix(0.95 0 0 1 10.1978 378.458)" class="st34 st14 st39">NABA_CORE_MATRISOME (C2)</text>
	</g>
	<g>
		<text transform="matrix(0.95 0 0 1 10.1978 387.9082)" class="st34 st14 st39">PID_INTEGRIN1_PATHWAY (C2)</text>
	</g>
	<g>
		<text transform="matrix(0.95 0 0 1 10.1978 397.3584)" class="st34 st14 st39">TURASHVILI_BREAST_LOBULAR_CARCINOMA_VS_LOBULAR_NORMAL_DN (C2)</text>
	</g>
	<g>
		<text transform="matrix(0.95 0 0 1 10.1978 406.1846)" class="st34 st14 st39">NABA_MATRISOME (C2)</text>
	</g>
	<g>
		<text transform="matrix(0.95 0 0 1 10.1978 414.9082)" class="st34 st14 st39">KEGG_ECM_RECEPTOR_INTERACTION (C2)</text>
	</g>
	<g>
		<text transform="matrix(0.95 0 0 1 10.1978 424.3584)" class="st34 st14 st39">REACTOME_NCAM1_INTERACTIONS (C2)</text>
	</g>
	<g>
		<text transform="matrix(0.95 0 0 1 10.1978 433.8086)" class="st34 st14 st39">NABA_COLLAGENS (C2)</text>
	</g>
	<g>
		<text transform="matrix(0.95 0 0 1 10.1978 443.2578)" class="st34 st14 st39">BRUINS_UVC_RESPONSE_LATE (C2)</text>
	</g>
	<line class="st37" x1="8.1" y1="328.8" x2="8.1" y2="446"/>
	<line class="st37" x1="372.9" y1="328.8" x2="372.9" y2="446"/>
	<line class="st31" x1="9.4" y1="339.8" x2="271.5" y2="339.8"/>
	<line class="st31" x1="9.4" y1="349.7" x2="271.5" y2="349.7"/>
	<text transform="matrix(1 0 0 1 276.8989 347.0791)" class="st32 st26 st38">p-value</text>
	<line class="st31" x1="308.1" y1="339.8" x2="371.1" y2="339.8"/>
	<line class="st31" x1="308.1" y1="349.7" x2="371.1" y2="349.7"/>
	<text transform="matrix(1 0 0 1 310.1992 347.0791)" class="st32 st26 st38">Adjusted p-value</text>
	<line class="st31" x1="304.5" y1="339.3" x2="304.5" y2="349.2"/>
	<line class="st31" x1="308.1" y1="339.3" x2="308.1" y2="349.2"/>
	<line class="st31" x1="371.1" y1="339.3" x2="371.1" y2="349.2"/>
	<text transform="matrix(1 0 0 1 275.9976 359.5586)" class="st40 st14 st41">1.244e-16</text>
	<text transform="matrix(1 0 0 1 275.9976 369.0078)" class="st40 st14 st41">6.256e-15</text>
	<text transform="matrix(1 0 0 1 275.9976 378.459)" class="st40 st14 st41">4.643e-14</text>
	<text transform="matrix(1 0 0 1 275.9976 387.9082)" class="st40 st14 st41">2.765e-13</text>
	<text transform="matrix(1 0 0 1 275.9976 397.3584)" class="st40 st14 st41">6.36e-13</text>
	<text transform="matrix(1 0 0 1 275.9976 406.1846)" class="st40 st14 st41">1.512e-12</text>
	<text transform="matrix(1 0 0 1 275.9976 414.9082)" class="st40 st14 st41">1.591e-12</text>
	<text transform="matrix(1 0 0 1 275.9976 424.3584)" class="st40 st14 st41">1.617e-12</text>
	<text transform="matrix(1 0 0 1 275.9976 433.8086)" class="st40 st14 st41">3.487e-12</text>
	<text transform="matrix(1 0 0 1 275.9976 443.2578)" class="st40 st14 st41">5.419e-12</text>
	<text transform="matrix(1 0 0 1 325.498 359.5586)" class="st40 st14 st41">5.893e-13</text>
	<text transform="matrix(1 0 0 1 325.498 369.0078)" class="st40 st14 st41">1.482e-11</text>
	<text transform="matrix(1 0 0 1 325.498 378.459)" class="st40 st14 st41">7.333e-11</text>
	<text transform="matrix(1 0 0 1 325.498 387.9082)" class="st40 st14 st41">3.276e-10</text>
	<text transform="matrix(1 0 0 1 325.498 397.3584)" class="st40 st14 st41">6.026e-10</text>
	<text transform="matrix(1 0 0 1 325.498 406.1846)" class="st40 st14 st41">9.576e-10</text>
	<text transform="matrix(1 0 0 1 325.498 414.9082)" class="st40 st14 st41">9.576e-10</text>
	<text transform="matrix(1 0 0 1 325.498 424.3584)" class="st40 st14 st41">9.576e-10</text>
	<text transform="matrix(1 0 0 1 325.498 433.8086)" class="st40 st14 st41">1.836e-09</text>
	<text transform="matrix(1 0 0 1 325.498 443.2578)" class="st40 st14 st41">2.568e-09</text>
	<text transform="matrix(1 0 0 1 25.8311 39.4648)" class="st18 st26 st15">up</text>
	<text transform="matrix(1 0 0 1 166.8311 39.4648)" class="st18 st26 st15">down</text>
	<text transform="matrix(1 0 0 1 7.8311 50.4648)" class="st42 st43 st39">Heatmap</text>
	<polyline class="st44" points="9,169.9 11.5,171.2 182.9,171.9 187,170.5 	"/>
	<text transform="matrix(1 0 0 1 81.5 179.5)" class="st26 st45">Target genes</text>
	<text transform="matrix(0 1 -1 0 219.5 66.5)" class="st26 st45">Cell conditions</text>
	<polyline class="st44" points="215.1,126 216.3,125 216.5,56.7 215.1,55 	"/>
	<path class="st46" d="M366.2,172.5H259.8c-5.2,0-9.3-4.2-9.3-9.3V52.8c0-5.2,4.2-9.3,9.3-9.3h106.3c5.2,0,9.3,4.2,9.3,9.3v110.3
		C375.5,168.3,371.3,172.5,366.2,172.5z"/>
	<g>
		<g>
			<line class="st47" x1="215" y1="158" x2="244.2" y2="158"/>
			<g>
				<polygon class="st48" points="242,165.5 255,158 242,150.5 				"/>
			</g>
		</g>
	</g>
	<text transform="matrix(1 0 0 1 322 52)" class="st26 st45">Gene network</text>
	<path class="st49" d="M187.9,99.7c-2.5,0-4.9,0-7.4,0c0-1.9,0-3.7,0-5.7c2.4,0,4.9,0,7.4,0C187.9,95.9,187.9,97.7,187.9,99.7z"/>
	<path class="st50" d="M187.9,53.2c0,1.9,0,3.8,0,5.8c-2.5,0-5,0-7.5,0c0-1.9,0-3.8,0-5.8C182.9,53.2,185.4,53.2,187.9,53.2z"/>
	<path class="st51" d="M180.4,106.4c0-1.9,0-3.7,0-5.6c2.5,0,4.9,0,7.4,0c0,1.8,0,3.6,0,5.6C185.5,106.4,183,106.4,180.4,106.4z"/>
	<path class="st50" d="M180.5,121.1c2.5,0,4.9,0,7.4,0c0,1.9,0,3.7,0,5.7c-2.4,0-4.8,0-7.4,0C180.5,125,180.5,123.1,180.5,121.1z"/>
	<path class="st50" d="M187.9,120.1c-2.6,0-5,0-7.5,0c0-1.9,0-3.8,0-5.8c2.5,0,4.9,0,7.5,0C187.9,116.2,187.9,118.1,187.9,120.1z"/>
	<path class="st52" d="M187.9,107.5c0,1.9,0,3.7,0,5.7c-2.5,0-4.9,0-7.5,0c0-1.9,0-3.7,0-5.7C182.9,107.5,185.4,107.5,187.9,107.5z"
		/>
	<path class="st50" d="M180.4,79.3c0-2,0-3.8,0-5.7c2.5,0,5,0,7.5,0c0,1.9,0,3.7,0,5.7C185.4,79.3,183,79.3,180.4,79.3z"/>
	<path class="st50" d="M187.9,66.9c0,2,0,3.8,0,5.7c-2.5,0-5,0-7.5,0c0-1.9,0-3.8,0-5.7C183,66.9,185.5,66.9,187.9,66.9z"/>
	<path class="st50" d="M187.9,60c0,1.9,0,3.8,0,5.8c-2.5,0-5,0-7.5,0c0-1.9,0-3.8,0-5.8C183,60,185.4,60,187.9,60z"/>
	<path class="st50" d="M180.4,86.1c0-1.9,0-3.8,0-5.8c2.5,0,5,0,7.5,0c0,1.9,0,3.8,0,5.8C185.4,86.1,182.9,86.1,180.4,86.1z"/>
	<path class="st50" d="M180.4,92.9c0-2,0-3.8,0-5.7c2.5,0,4.9,0,7.5,0c0,1.8,0,3.7,0,5.7C185.4,92.9,183,92.9,180.4,92.9z"/>
	<path class="st50" d="M170.5,99.7c-2.5,0-4.9,0-7.4,0c0-1.9,0-3.7,0-5.7c2.4,0,4.9,0,7.4,0C170.5,95.9,170.5,97.8,170.5,99.7z"/>
	<path class="st53" d="M170.5,53.3c0,1.9,0,3.8,0,5.8c-2.5,0-5,0-7.5,0c0-1.9,0-3.8,0-5.8C165.5,53.3,167.9,53.3,170.5,53.3z"/>
	<path class="st50" d="M163,106.4c0-1.9,0-3.7,0-5.6c2.5,0,4.9,0,7.4,0c0,1.8,0,3.6,0,5.6C168,106.4,165.6,106.4,163,106.4z"/>
	<path class="st54" d="M163,121.1c2.5,0,4.9,0,7.4,0c0,1.9,0,3.7,0,5.7c-2.4,0-4.8,0-7.4,0C163,125,163,123.2,163,121.1z"/>
	<path class="st50" d="M170.5,120.1c-2.6,0-5,0-7.5,0c0-1.9,0-3.8,0-5.8c2.5,0,4.9,0,7.5,0C170.5,116.2,170.5,118.1,170.5,120.1z"/>
	<path class="st50" d="M170.5,107.6c0,1.9,0,3.7,0,5.7c-2.5,0-4.9,0-7.5,0c0-1.9,0-3.7,0-5.7C165.5,107.6,167.9,107.6,170.5,107.6z"
		/>
	<path class="st55" d="M162.9,79.3c0-2,0-3.8,0-5.7c2.5,0,5,0,7.5,0c0,1.9,0,3.7,0,5.7C168,79.3,165.5,79.3,162.9,79.3z"/>
	<path class="st50" d="M170.5,66.9c0,2,0,3.8,0,5.7c-2.5,0-5,0-7.5,0c0-1.9,0-3.8,0-5.7C165.5,66.9,168,66.9,170.5,66.9z"/>
	<path class="st50" d="M170.5,60c0,1.9,0,3.8,0,5.8c-2.5,0-5,0-7.5,0c0-1.9,0-3.8,0-5.8C165.5,60,167.9,60,170.5,60z"/>
	<path class="st56" d="M162.9,86.1c0-1.9,0-3.8,0-5.8c2.5,0,5,0,7.5,0c0,1.9,0,3.8,0,5.8C167.9,86.1,165.5,86.1,162.9,86.1z"/>
	<path class="st50" d="M163,92.9c0-2,0-3.8,0-5.7c2.5,0,4.9,0,7.5,0c0,1.8,0,3.7,0,5.7C168,92.9,165.5,92.9,163,92.9z"/>
	<path class="st57" d="M179.1,99.7c-2.5,0-4.9,0-7.4,0c0-1.9,0-3.7,0-5.7c2.4,0,4.9,0,7.4,0C179.1,95.9,179.1,97.7,179.1,99.7z"/>
	<path class="st58" d="M179.1,53.2c0,1.9,0,3.8,0,5.8c-2.5,0-5,0-7.5,0c0-1.9,0-3.8,0-5.8C174.1,53.2,176.6,53.2,179.1,53.2z"/>
	<path class="st59" d="M171.6,106.4c0-1.9,0-3.7,0-5.6c2.5,0,4.9,0,7.4,0c0,1.8,0,3.6,0,5.6C176.7,106.4,174.2,106.4,171.6,106.4z"
		/>
	<path class="st60" d="M171.7,121.1c2.5,0,4.9,0,7.4,0c0,1.9,0,3.7,0,5.7c-2.4,0-4.8,0-7.4,0C171.7,125,171.7,123.1,171.7,121.1z"/>
	<path class="st61" d="M179.1,120.1c-2.6,0-5,0-7.5,0c0-1.9,0-3.8,0-5.8c2.5,0,4.9,0,7.5,0C179.1,116.2,179.1,118.1,179.1,120.1z"/>
	<path class="st62" d="M179.1,107.5c0,1.9,0,3.7,0,5.7c-2.5,0-4.9,0-7.5,0c0-1.9,0-3.7,0-5.7C174.1,107.5,176.6,107.5,179.1,107.5z"
		/>
	<path class="st63" d="M171.6,79.3c0-2,0-3.8,0-5.7c2.5,0,5,0,7.5,0c0,1.9,0,3.7,0,5.7C176.6,79.3,174.2,79.3,171.6,79.3z"/>
	<path class="st64" d="M179.1,66.9c0,2,0,3.8,0,5.7c-2.5,0-5,0-7.5,0c0-1.9,0-3.8,0-5.7C174.2,66.9,176.7,66.9,179.1,66.9z"/>
	<path class="st65" d="M179.1,60c0,1.9,0,3.8,0,5.8c-2.5,0-5,0-7.5,0c0-1.9,0-3.8,0-5.8C174.1,60,176.6,60,179.1,60z"/>
	<path class="st66" d="M171.6,86.1c0-1.9,0-3.8,0-5.8c2.5,0,5,0,7.5,0c0,1.9,0,3.8,0,5.8C176.6,86.1,174.1,86.1,171.6,86.1z"/>
	<path class="st67" d="M171.6,92.9c0-2,0-3.8,0-5.7c2.5,0,4.9,0,7.5,0c0,1.8,0,3.7,0,5.7C176.6,92.9,174.2,92.9,171.6,92.9z"/>
	<path class="st51" d="M161.9,99.7c-2.5,0-4.9,0-7.4,0c0-1.9,0-3.7,0-5.7c2.4,0,4.9,0,7.4,0C161.9,95.9,161.9,97.7,161.9,99.7z"/>
	<path class="st68" d="M161.9,53.2c0,1.9,0,3.8,0,5.8c-2.5,0-5,0-7.5,0c0-1.9,0-3.8,0-5.8C156.9,53.2,159.3,53.2,161.9,53.2z"/>
	<path class="st62" d="M154.4,106.4c0-1.9,0-3.7,0-5.6c2.5,0,4.9,0,7.4,0c0,1.8,0,3.6,0,5.6C159.4,106.4,156.9,106.4,154.4,106.4z"
		/>
	<path class="st69" d="M154.4,121.1c2.5,0,4.9,0,7.4,0c0,1.9,0,3.7,0,5.7c-2.4,0-4.8,0-7.4,0C154.4,125,154.4,123.1,154.4,121.1z"/>
	<path class="st70" d="M161.9,120.1c-2.6,0-5,0-7.5,0c0-1.9,0-3.8,0-5.8c2.5,0,4.9,0,7.5,0C161.9,116.2,161.9,118.1,161.9,120.1z"/>
	<path class="st63" d="M161.9,107.5c0,1.9,0,3.7,0,5.7c-2.5,0-4.9,0-7.5,0c0-1.9,0-3.7,0-5.7C156.9,107.5,159.3,107.5,161.9,107.5z"
		/>
	<path class="st71" d="M154.3,79.3c0-2,0-3.8,0-5.7c2.5,0,5,0,7.5,0c0,1.9,0,3.7,0,5.7C159.4,79.3,156.9,79.3,154.3,79.3z"/>
	<path class="st51" d="M161.9,66.9c0,2,0,3.8,0,5.7c-2.5,0-5,0-7.5,0c0-1.9,0-3.8,0-5.7C156.9,66.9,159.4,66.9,161.9,66.9z"/>
	<path class="st50" d="M161.9,60c0,1.9,0,3.8,0,5.8c-2.5,0-5,0-7.5,0c0-1.9,0-3.8,0-5.8C156.9,60,159.3,60,161.9,60z"/>
	<path class="st72" d="M154.3,86.1c0-1.9,0-3.8,0-5.8c2.5,0,5,0,7.5,0c0,1.9,0,3.8,0,5.8C159.3,86.1,156.9,86.1,154.3,86.1z"/>
	<path class="st73" d="M154.4,92.9c0-2,0-3.8,0-5.7c2.5,0,4.9,0,7.5,0c0,1.8,0,3.7,0,5.7C159.4,92.9,156.9,92.9,154.4,92.9z"/>
	<path class="st74" d="M153.1,99.7c-2.5,0-4.9,0-7.4,0c0-1.9,0-3.7,0-5.7c2.4,0,4.9,0,7.4,0C153.1,95.9,153.1,97.7,153.1,99.7z"/>
	<path class="st75" d="M153.1,53.2c0,1.9,0,3.8,0,5.8c-2.5,0-5,0-7.5,0c0-1.9,0-3.8,0-5.8C148.1,53.2,150.6,53.2,153.1,53.2z"/>
	<path class="st76" d="M145.6,106.4c0-1.9,0-3.7,0-5.6c2.5,0,4.9,0,7.4,0c0,1.8,0,3.6,0,5.6C150.6,106.4,148.2,106.4,145.6,106.4z"
		/>
	<path class="st73" d="M145.6,121.1c2.5,0,4.9,0,7.4,0c0,1.9,0,3.7,0,5.7c-2.4,0-4.8,0-7.4,0C145.6,125,145.6,123.1,145.6,121.1z"/>
	<path class="st77" d="M153.1,120.1c-2.6,0-5,0-7.5,0c0-1.9,0-3.8,0-5.8c2.5,0,4.9,0,7.5,0C153.1,116.2,153.1,118.1,153.1,120.1z"/>
	<path class="st78" d="M153.1,107.5c0,1.9,0,3.7,0,5.7c-2.5,0-4.9,0-7.5,0c0-1.9,0-3.7,0-5.7C148.1,107.5,150.6,107.5,153.1,107.5z"
		/>
	<path class="st50" d="M145.6,79.3c0-2,0-3.8,0-5.7c2.5,0,5,0,7.5,0c0,1.9,0,3.7,0,5.7C150.6,79.3,148.2,79.3,145.6,79.3z"/>
	<path class="st50" d="M153.1,66.9c0,2,0,3.8,0,5.7c-2.5,0-5,0-7.5,0c0-1.9,0-3.8,0-5.7C148.2,66.9,150.7,66.9,153.1,66.9z"/>
	<path class="st79" d="M153.1,60c0,1.9,0,3.8,0,5.8c-2.5,0-5,0-7.5,0c0-1.9,0-3.8,0-5.8C148.1,60,150.6,60,153.1,60z"/>
	<path class="st64" d="M145.6,86.1c0-1.9,0-3.8,0-5.8c2.5,0,5,0,7.5,0c0,1.9,0,3.8,0,5.8C150.6,86.1,148.1,86.1,145.6,86.1z"/>
	<path class="st72" d="M145.6,92.9c0-2,0-3.8,0-5.7c2.5,0,4.9,0,7.5,0c0,1.8,0,3.7,0,5.7C150.6,92.9,148.2,92.9,145.6,92.9z"/>
	<path class="st50" d="M144.3,99.7c-2.5,0-4.9,0-7.4,0c0-1.9,0-3.7,0-5.7c2.4,0,4.9,0,7.4,0C144.3,95.9,144.3,97.7,144.3,99.7z"/>
	<path class="st80" d="M144.4,53.2c0,1.9,0,3.8,0,5.8c-2.5,0-5,0-7.5,0c0-1.9,0-3.8,0-5.8C139.4,53.2,141.8,53.2,144.4,53.2z"/>
	<path class="st50" d="M136.9,106.4c0-1.9,0-3.7,0-5.6c2.5,0,4.9,0,7.4,0c0,1.8,0,3.6,0,5.6C141.9,106.4,139.4,106.4,136.9,106.4z"
		/>
	<path class="st72" d="M136.9,121.1c2.5,0,4.9,0,7.4,0c0,1.9,0,3.7,0,5.7c-2.4,0-4.8,0-7.4,0C136.9,125,136.9,123.1,136.9,121.1z"/>
	<path class="st81" d="M144.3,120.1c-2.6,0-5,0-7.5,0c0-1.9,0-3.8,0-5.8c2.5,0,4.9,0,7.5,0C144.3,116.2,144.3,118.1,144.3,120.1z"/>
	<path class="st50" d="M144.4,107.5c0,1.9,0,3.7,0,5.7c-2.5,0-4.9,0-7.5,0c0-1.9,0-3.7,0-5.7C139.4,107.5,141.8,107.5,144.4,107.5z"
		/>
	<path class="st57" d="M136.8,79.3c0-2,0-3.8,0-5.7c2.5,0,5,0,7.5,0c0,1.9,0,3.7,0,5.7C141.9,79.3,139.4,79.3,136.8,79.3z"/>
	<path class="st82" d="M144.4,66.9c0,2,0,3.8,0,5.7c-2.5,0-5,0-7.5,0c0-1.9,0-3.8,0-5.7C139.4,66.9,141.9,66.9,144.4,66.9z"/>
	<path class="st83" d="M144.4,60c0,1.9,0,3.8,0,5.8c-2.5,0-5,0-7.5,0c0-1.9,0-3.8,0-5.8C139.4,60,141.8,60,144.4,60z"/>
	<path class="st84" d="M136.8,86.1c0-1.9,0-3.8,0-5.8c2.5,0,5,0,7.5,0c0,1.9,0,3.8,0,5.8C141.8,86.1,139.4,86.1,136.8,86.1z"/>
	<path class="st50" d="M136.8,92.9c0-2,0-3.8,0-5.7c2.5,0,4.9,0,7.5,0c0,1.8,0,3.7,0,5.7C141.9,92.9,139.4,92.9,136.8,92.9z"/>
	<path class="st85" d="M135.7,99.7c-2.5,0-4.9,0-7.4,0c0-1.9,0-3.7,0-5.7c2.4,0,4.9,0,7.4,0C135.7,95.9,135.7,97.7,135.7,99.7z"/>
	<path class="st86" d="M135.7,53.2c0,1.9,0,3.8,0,5.8c-2.5,0-5,0-7.5,0c0-1.9,0-3.8,0-5.8C130.7,53.2,133.2,53.2,135.7,53.2z"/>
	<path class="st59" d="M128.2,106.4c0-1.9,0-3.7,0-5.6c2.5,0,4.9,0,7.4,0c0,1.8,0,3.6,0,5.6C133.2,106.4,130.8,106.4,128.2,106.4z"
		/>
	<path class="st77" d="M128.2,121.1c2.5,0,4.9,0,7.4,0c0,1.9,0,3.7,0,5.7c-2.4,0-4.8,0-7.4,0C128.2,125,128.2,123.1,128.2,121.1z"/>
	<path class="st70" d="M135.7,120.1c-2.6,0-5,0-7.5,0c0-1.9,0-3.8,0-5.8c2.5,0,4.9,0,7.5,0C135.7,116.2,135.7,118.1,135.7,120.1z"/>
	<path class="st87" d="M135.7,107.5c0,1.9,0,3.7,0,5.7c-2.5,0-4.9,0-7.5,0c0-1.9,0-3.7,0-5.7C130.7,107.5,133.2,107.5,135.7,107.5z"
		/>
	<path class="st50" d="M128.1,79.3c0-2,0-3.8,0-5.7c2.5,0,5,0,7.5,0c0,1.9,0,3.7,0,5.7C133.2,79.3,130.8,79.3,128.1,79.3z"/>
	<path class="st56" d="M135.7,66.9c0,2,0,3.8,0,5.7c-2.5,0-5,0-7.5,0c0-1.9,0-3.8,0-5.7C130.8,66.9,133.2,66.9,135.7,66.9z"/>
	<path class="st50" d="M135.7,60c0,1.9,0,3.8,0,5.8c-2.5,0-5,0-7.5,0c0-1.9,0-3.8,0-5.8C130.7,60,133.2,60,135.7,60z"/>
	<path class="st88" d="M128.2,86.1c0-1.9,0-3.8,0-5.8c2.5,0,5,0,7.5,0c0,1.9,0,3.8,0,5.8C133.2,86.1,130.7,86.1,128.2,86.1z"/>
	<path class="st68" d="M128.2,92.9c0-2,0-3.8,0-5.7c2.5,0,4.9,0,7.5,0c0,1.8,0,3.7,0,5.7C133.2,92.9,130.8,92.9,128.2,92.9z"/>
	<path class="st59" d="M126.8,99.7c-2.5,0-4.9,0-7.4,0c0-1.9,0-3.7,0-5.7c2.4,0,4.9,0,7.4,0C126.8,95.9,126.8,97.7,126.8,99.7z"/>
	<path class="st65" d="M126.9,53.2c0,1.9,0,3.8,0,5.8c-2.5,0-5,0-7.5,0c0-1.9,0-3.8,0-5.8C121.9,53.2,124.3,53.2,126.9,53.2z"/>
	<path class="st61" d="M119.4,106.4c0-1.9,0-3.7,0-5.6c2.5,0,4.9,0,7.4,0c0,1.8,0,3.6,0,5.6C124.4,106.4,121.9,106.4,119.4,106.4z"
		/>
	<path class="st61" d="M119.4,121.1c2.5,0,4.9,0,7.4,0c0,1.9,0,3.7,0,5.7c-2.4,0-4.8,0-7.4,0C119.4,125,119.4,123.1,119.4,121.1z"/>
	<path class="st61" d="M126.9,120.1c-2.6,0-5,0-7.5,0c0-1.9,0-3.8,0-5.8c2.5,0,4.9,0,7.5,0C126.9,116.2,126.9,118.1,126.9,120.1z"/>
	<path class="st61" d="M126.9,107.5c0,1.9,0,3.7,0,5.7c-2.5,0-4.9,0-7.5,0c0-1.9,0-3.7,0-5.7C121.9,107.5,124.3,107.5,126.9,107.5z"
		/>
	<path class="st50" d="M119.3,79.3c0-2,0-3.8,0-5.7c2.5,0,5,0,7.5,0c0,1.9,0,3.7,0,5.7C124.4,79.3,121.9,79.3,119.3,79.3z"/>
	<path class="st86" d="M126.9,66.9c0,2,0,3.8,0,5.7c-2.5,0-5,0-7.5,0c0-1.9,0-3.8,0-5.7C121.9,66.9,124.4,66.9,126.9,66.9z"/>
	<path class="st50" d="M126.9,60c0,1.9,0,3.8,0,5.8c-2.5,0-5,0-7.5,0c0-1.9,0-3.8,0-5.8C121.9,60,124.3,60,126.9,60z"/>
	<path class="st61" d="M119.3,86.1c0-1.9,0-3.8,0-5.8c2.5,0,5,0,7.5,0c0,1.9,0,3.8,0,5.8C124.3,86.1,121.9,86.1,119.3,86.1z"/>
	<path class="st61" d="M119.4,92.9c0-2,0-3.8,0-5.7c2.5,0,4.9,0,7.5,0c0,1.8,0,3.7,0,5.7C124.4,92.9,121.9,92.9,119.4,92.9z"/>
	<path class="st77" d="M118.3,99.6c-2.5,0-4.9,0-7.4,0c0-1.9,0-3.7,0-5.7c2.4,0,4.9,0,7.4,0C118.3,95.8,118.3,97.7,118.3,99.6z"/>
	<path class="st89" d="M118.3,53.2c0,1.9,0,3.8,0,5.8c-2.5,0-5,0-7.5,0c0-1.9,0-3.8,0-5.8C113.3,53.2,115.8,53.2,118.3,53.2z"/>
	<path class="st81" d="M110.8,106.3c0-1.9,0-3.7,0-5.6c2.5,0,4.9,0,7.4,0c0,1.8,0,3.6,0,5.6C115.8,106.3,113.4,106.3,110.8,106.3z"
		/>
	<path class="st90" d="M110.8,121c2.5,0,4.9,0,7.4,0c0,1.9,0,3.7,0,5.7c-2.4,0-4.8,0-7.4,0C110.8,125,110.8,123.1,110.8,121z"/>
	<path class="st90" d="M118.3,120c-2.6,0-5,0-7.5,0c0-1.9,0-3.8,0-5.8c2.5,0,4.9,0,7.5,0C118.3,116.2,118.3,118,118.3,120z"/>
	<path class="st91" d="M118.4,107.7c-0.1,1.9-0.2,3.7-0.3,5.7c-2.5-0.1-4.9-0.3-7.5-0.4c0.1-1.8,0.2-3.7,0.3-5.7
		C113.4,107.4,115.9,107.6,118.4,107.7z"/>
	<path class="st50" d="M110.8,79.3c0-2,0-3.8,0-5.7c2.5,0,5,0,7.5,0c0,1.9,0,3.7,0,5.7C115.8,79.3,113.4,79.3,110.8,79.3z"/>
	<path class="st50" d="M118.3,66.8c0,2,0,3.8,0,5.7c-2.5,0-5,0-7.5,0c0-1.9,0-3.8,0-5.7C113.4,66.8,115.8,66.8,118.3,66.8z"/>
	<path class="st50" d="M118.3,60c0,1.9,0,3.8,0,5.8c-2.5,0-5,0-7.5,0c0-1.9,0-3.8,0-5.8C113.3,60,115.8,60,118.3,60z"/>
	<path class="st50" d="M110.8,86.1c0-1.9,0-3.8,0-5.8c2.5,0,5,0,7.5,0c0,1.9,0,3.8,0,5.8C115.8,86.1,113.3,86.1,110.8,86.1z"/>
	<path class="st81" d="M110.8,92.8c0-2,0-3.8,0-5.7c2.5,0,4.9,0,7.5,0c0,1.8,0,3.7,0,5.7C115.8,92.8,113.4,92.8,110.8,92.8z"/>
	<path class="st75" d="M100.8,99.7c-2.5,0-4.9,0-7.4,0c0-1.9,0-3.7,0-5.7c2.4,0,4.9,0,7.4,0C100.8,95.9,100.8,97.7,100.8,99.7z"/>
	<path class="st92" d="M100.8,53.2c0,1.9,0,3.8,0,5.8c-2.5,0-5,0-7.5,0c0-1.9,0-3.8,0-5.8C95.9,53.2,98.3,53.2,100.8,53.2z"/>
	<path class="st75" d="M93.3,106.4c0-1.9,0-3.7,0-5.6c2.5,0,4.9,0,7.4,0c0,1.8,0,3.6,0,5.6C98.4,106.4,95.9,106.4,93.3,106.4z"/>
	<path class="st75" d="M93.4,121.1c2.5,0,4.9,0,7.4,0c0,1.9,0,3.7,0,5.7c-2.4,0-4.8,0-7.4,0C93.4,125,93.4,123.1,93.4,121.1z"/>
	<path class="st75" d="M100.8,120.1c-2.6,0-5,0-7.5,0c0-1.9,0-3.8,0-5.8c2.5,0,4.9,0,7.5,0C100.8,116.2,100.8,118.1,100.8,120.1z"/>
	<path class="st75" d="M100.8,107.5c0,1.9,0,3.7,0,5.7c-2.5,0-4.9,0-7.5,0c0-1.9,0-3.7,0-5.7C95.8,107.5,98.3,107.5,100.8,107.5z"/>
	<path class="st73" d="M93.3,79.3c0-2,0-3.8,0-5.7c2.5,0,5,0,7.5,0c0,1.9,0,3.7,0,5.7C98.4,79.3,95.9,79.3,93.3,79.3z"/>
	<path class="st50" d="M100.9,66.9c0,2,0,3.8,0,5.7c-2.5,0-5,0-7.5,0c0-1.9,0-3.8,0-5.7C95.9,66.9,98.4,66.9,100.9,66.9z"/>
	<path class="st50" d="M100.8,60c0,1.9,0,3.8,0,5.8c-2.5,0-5,0-7.5,0c0-1.9,0-3.8,0-5.8C95.9,60,98.3,60,100.8,60z"/>
	<path class="st50" d="M93.3,86.1c0-1.9,0-3.8,0-5.8c2.5,0,5,0,7.5,0c0,1.9,0,3.8,0,5.8C98.3,86.1,95.9,86.1,93.3,86.1z"/>
	<path class="st75" d="M93.3,92.9c0-2,0-3.8,0-5.7c2.5,0,4.9,0,7.5,0c0,1.8,0,3.7,0,5.7C98.4,92.9,95.9,92.9,93.3,92.9z"/>
	<path class="st69" d="M109.5,99.6c-2.5,0-4.9,0-7.4,0c0-1.9,0-3.7,0-5.7c2.4,0,4.9,0,7.4,0C109.5,95.8,109.5,97.7,109.5,99.6z"/>
	<path class="st86" d="M109.5,53.2c0,1.9,0,3.8,0,5.8c-2.5,0-5,0-7.5,0c0-1.9,0-3.8,0-5.8C104.5,53.2,107,53.2,109.5,53.2z"/>
	<path class="st81" d="M102,106.3c0-1.9,0-3.7,0-5.6c2.5,0,4.9,0,7.4,0c0,1.8,0,3.6,0,5.6C107,106.3,104.6,106.3,102,106.3z"/>
	<path class="st93" d="M102,121c2.5,0,4.9,0,7.4,0c0,1.9,0,3.7,0,5.7c-2.4,0-4.8,0-7.4,0C102,125,102,123.1,102,121z"/>
	<path class="st93" d="M109.5,120c-2.6,0-5,0-7.5,0c0-1.9,0-3.8,0-5.8c2.5,0,4.9,0,7.5,0C109.5,116.2,109.5,118,109.5,120z"/>
	<path class="st94" d="M109.5,107.5c0,1.9,0,3.7,0,5.7c-2.5,0-4.9,0-7.5,0c0-1.9,0-3.7,0-5.7C104.5,107.5,107,107.5,109.5,107.5z"/>
	<path class="st95" d="M101.9,79.3c0-2,0-3.8,0-5.7c2.5,0,5,0,7.5,0c0,1.9,0,3.7,0,5.7C107,79.3,104.6,79.3,101.9,79.3z"/>
	<path class="st50" d="M109.5,66.8c0,2,0,3.8,0,5.7c-2.5,0-5,0-7.5,0c0-1.9,0-3.8,0-5.7C104.6,66.8,107,66.8,109.5,66.8z"/>
	<path class="st50" d="M109.5,60c0,1.9,0,3.8,0,5.8c-2.5,0-5,0-7.5,0c0-1.9,0-3.8,0-5.8C104.5,60,107,60,109.5,60z"/>
	<path class="st62" d="M102,86.1c0-1.9,0-3.8,0-5.8c2.5,0,5,0,7.5,0c0,1.9,0,3.8,0,5.8C107,86.1,104.5,86.1,102,86.1z"/>
	<path class="st85" d="M102,92.8c0-2,0-3.8,0-5.7c2.5,0,4.9,0,7.5,0c0,1.8,0,3.7,0,5.7C107,92.8,104.6,92.8,102,92.8z"/>
	<path class="st96" d="M92.2,99.6c-2.5,0-4.9,0-7.4,0c0-1.9,0-3.7,0-5.7c2.4,0,4.9,0,7.4,0C92.2,95.8,92.2,97.7,92.2,99.6z"/>
	<path class="st54" d="M92.2,53.2c0,1.9,0,3.8,0,5.8c-2.5,0-5,0-7.5,0c0-1.9,0-3.8,0-5.8C87.3,53.2,89.7,53.2,92.2,53.2z"/>
	<path class="st96" d="M84.7,106.3c0-1.9,0-3.7,0-5.6c2.5,0,4.9,0,7.4,0c0,1.8,0,3.6,0,5.6C89.8,106.3,87.3,106.3,84.7,106.3z"/>
	<path class="st89" d="M84.8,121c2.5,0,4.9,0,7.4,0c0,1.9,0,3.7,0,5.7c-2.4,0-4.8,0-7.4,0C84.8,125,84.8,123.1,84.8,121z"/>
	<path class="st89" d="M92.2,120c-2.6,0-5,0-7.5,0c0-1.9,0-3.8,0-5.8c2.5,0,4.9,0,7.5,0C92.2,116.2,92.2,118,92.2,120z"/>
	<path class="st96" d="M92.2,107.5c0,1.9,0,3.7,0,5.7c-2.5,0-4.9,0-7.5,0c0-1.9,0-3.7,0-5.7C87.2,107.5,89.7,107.5,92.2,107.5z"/>
	<path class="st86" d="M84.7,79.3c0-2,0-3.8,0-5.7c2.5,0,5,0,7.5,0c0,1.9,0,3.7,0,5.7C89.7,79.3,87.3,79.3,84.7,79.3z"/>
	<path class="st67" d="M92.2,66.8c0,2,0,3.8,0,5.7c-2.5,0-5,0-7.5,0c0-1.9,0-3.8,0-5.7C87.3,66.8,89.8,66.8,92.2,66.8z"/>
	<path class="st50" d="M92.2,60c0,1.9,0,3.8,0,5.8c-2.5,0-5,0-7.5,0c0-1.9,0-3.8,0-5.8C87.3,60,89.7,60,92.2,60z"/>
	<path class="st66" d="M84.7,86.1c0-1.9,0-3.8,0-5.8c2.5,0,5,0,7.5,0c0,1.9,0,3.8,0,5.8C89.7,86.1,87.3,86.1,84.7,86.1z"/>
	<path class="st96" d="M84.7,92.8c0-2,0-3.8,0-5.7c2.5,0,4.9,0,7.5,0c0,1.8,0,3.7,0,5.7C89.8,92.8,87.3,92.8,84.7,92.8z"/>
	<path class="st63" d="M83.5,99.6c-2.5,0-4.9,0-7.4,0c0-1.9,0-3.7,0-5.7c2.4,0,4.9,0,7.4,0C83.5,95.8,83.5,97.7,83.5,99.6z"/>
	<path class="st54" d="M83.5,53.2c0,1.9,0,3.8,0,5.8c-2.5,0-5,0-7.5,0c0-1.9,0-3.8,0-5.8C78.5,53.2,80.9,53.2,83.5,53.2z"/>
	<path class="st63" d="M76,106.3c0-1.9,0-3.7,0-5.6c2.5,0,4.9,0,7.4,0c0,1.8,0,3.6,0,5.6C81,106.3,78.6,106.3,76,106.3z"/>
	<path class="st85" d="M76,121c2.5,0,4.9,0,7.4,0c0,1.9,0,3.7,0,5.7c-2.4,0-4.8,0-7.4,0C76,125,76,123.1,76,121z"/>
	<path class="st85" d="M83.5,120c-2.6,0-5,0-7.5,0c0-1.9,0-3.8,0-5.8c2.5,0,4.9,0,7.5,0C83.5,116.2,83.5,118,83.5,120z"/>
	<path class="st73" d="M83.5,107.5c0,1.9,0,3.7,0,5.7c-2.5,0-4.9,0-7.5,0c0-1.9,0-3.7,0-5.7C78.5,107.5,80.9,107.5,83.5,107.5z"/>
	<path class="st55" d="M75.9,79.3c0-2,0-3.8,0-5.7c2.5,0,5,0,7.5,0c0,1.9,0,3.7,0,5.7C81,79.3,78.5,79.3,75.9,79.3z"/>
	<path class="st50" d="M83.5,66.8c0,2,0,3.8,0,5.7c-2.5,0-5,0-7.5,0c0-1.9,0-3.8,0-5.7C78.5,66.8,81,66.8,83.5,66.8z"/>
	<path class="st50" d="M83.5,60c0,1.9,0,3.8,0,5.8c-2.5,0-5,0-7.5,0c0-1.9,0-3.8,0-5.8C78.5,60,80.9,60,83.5,60z"/>
	<path class="st66" d="M76,86.1c0-1.9,0-3.8,0-5.8c2.5,0,5,0,7.5,0c0,1.9,0,3.8,0,5.8C80.9,86.1,78.5,86.1,76,86.1z"/>
	<path class="st96" d="M76,92.8c0-2,0-3.8,0-5.7c2.5,0,4.9,0,7.5,0c0,1.8,0,3.7,0,5.7C81,92.8,78.5,92.8,76,92.8z"/>
	<path class="st96" d="M74.7,99.6c-2.5,0-4.9,0-7.4,0c0-1.9,0-3.7,0-5.7c2.4,0,4.9,0,7.4,0C74.7,95.8,74.7,97.7,74.7,99.6z"/>
	<path class="st91" d="M74.7,53.2c0,1.9,0,3.8,0,5.8c-2.5,0-5,0-7.5,0c0-1.9,0-3.8,0-5.8C69.7,53.2,72.2,53.2,74.7,53.2z"/>
	<path class="st97" d="M67.2,106.3c0-1.9,0-3.7,0-5.6c2.5,0,4.9,0,7.4,0c0,1.8,0,3.6,0,5.6C72.3,106.3,69.8,106.3,67.2,106.3z"/>
	<path class="st89" d="M67.3,121c2.5,0,4.9,0,7.4,0c0,1.9,0,3.7,0,5.7c-2.4,0-4.8,0-7.4,0C67.3,125,67.3,123.1,67.3,121z"/>
	<path class="st89" d="M74.7,120c-2.6,0-5,0-7.5,0c0-1.9,0-3.8,0-5.8c2.5,0,4.9,0,7.5,0C74.7,116.2,74.7,118,74.7,120z"/>
	<path class="st96" d="M74.7,107.5c0,1.9,0,3.7,0,5.7c-2.5,0-4.9,0-7.5,0c0-1.9,0-3.7,0-5.7C69.7,107.5,72.2,107.5,74.7,107.5z"/>
	<path class="st98" d="M67.2,79.3c0-2,0-3.8,0-5.7c2.5,0,5,0,7.5,0c0,1.9,0,3.7,0,5.7C72.2,79.3,69.8,79.3,67.2,79.3z"/>
	<path class="st50" d="M74.7,66.8c0,2,0,3.8,0,5.7c-2.5,0-5,0-7.5,0c0-1.9,0-3.8,0-5.7C69.8,66.8,72.3,66.8,74.7,66.8z"/>
	<path class="st50" d="M74.7,60c0,1.9,0,3.8,0,5.8c-2.5,0-5,0-7.5,0c0-1.9,0-3.8,0-5.8C69.7,60,72.2,60,74.7,60z"/>
	<path class="st66" d="M67.2,86.1c0-1.9,0-3.8,0-5.8c2.5,0,5,0,7.5,0c0,1.9,0,3.8,0,5.8C72.2,86.1,69.7,86.1,67.2,86.1z"/>
	<path class="st96" d="M67.2,92.8c0-2,0-3.8,0-5.7c2.5,0,4.9,0,7.5,0c0,1.8,0,3.7,0,5.7C72.2,92.8,69.8,92.8,67.2,92.8z"/>
	<path class="st94" d="M66,99.6c-2.5,0-4.9,0-7.4,0c0-1.9,0-3.7,0-5.7c2.4,0,4.9,0,7.4,0C66,95.8,66,97.7,66,99.6z"/>
	<path class="st66" d="M66,53.2c0,1.9,0,3.8,0,5.8c-2.5,0-5,0-7.5,0c0-1.9,0-3.8,0-5.8C61.1,53.2,63.5,53.2,66,53.2z"/>
	<path class="st94" d="M58.5,106.3c0-1.9,0-3.7,0-5.6c2.5,0,4.9,0,7.4,0c0,1.8,0,3.6,0,5.6C63.6,106.3,61.1,106.3,58.5,106.3z"/>
	<path class="st89" d="M58.6,121c2.5,0,4.9,0,7.4,0c0,1.9,0,3.7,0,5.7c-2.4,0-4.8,0-7.4,0C58.6,125,58.6,123.1,58.6,121z"/>
	<path class="st89" d="M66,120c-2.6,0-5,0-7.5,0c0-1.9,0-3.8,0-5.8c2.5,0,4.9,0,7.5,0C66,116.2,66,118,66,120z"/>
	<path class="st94" d="M66,107.5c0,1.9,0,3.7,0,5.7c-2.5,0-4.9,0-7.5,0c0-1.9,0-3.7,0-5.7C61,107.5,63.5,107.5,66,107.5z"/>
	<path class="st99" d="M58.5,79.3c0-2,0-3.8,0-5.7c2.5,0,5,0,7.5,0c0,1.9,0,3.7,0,5.7C63.6,79.3,61.1,79.3,58.5,79.3z"/>
	<path class="st100" d="M66.1,66.8c0,2,0,3.8,0,5.7c-2.5,0-5,0-7.5,0c0-1.9,0-3.8,0-5.7C61.1,66.8,63.6,66.8,66.1,66.8z"/>
	<path class="st101" d="M66,60c0,1.9,0,3.8,0,5.8c-2.5,0-5,0-7.5,0c0-1.9,0-3.8,0-5.8C61.1,60,63.5,60,66,60z"/>
	<path class="st94" d="M58.5,86.1c0-1.9,0-3.8,0-5.8c2.5,0,5,0,7.5,0c0,1.9,0,3.8,0,5.8C63.5,86.1,61.1,86.1,58.5,86.1z"/>
	<path class="st94" d="M58.5,92.8c0-2,0-3.8,0-5.7c2.5,0,4.9,0,7.5,0c0,1.8,0,3.7,0,5.7C63.6,92.8,61.1,92.8,58.5,92.8z"/>
	<path class="st96" d="M48.6,99.7c-2.5,0-4.9,0-7.4,0c0-1.9,0-3.7,0-5.7c2.4,0,4.9,0,7.4,0C48.6,95.9,48.6,97.7,48.6,99.7z"/>
	<path class="st50" d="M48.6,53.2c0,1.9,0,3.8,0,5.8c-2.5,0-5,0-7.5,0c0-1.9,0-3.8,0-5.8C43.6,53.2,46,53.2,48.6,53.2z"/>
	<path class="st96" d="M41.1,106.4c0-1.9,0-3.7,0-5.6c2.5,0,4.9,0,7.4,0c0,1.8,0,3.6,0,5.6C46.1,106.4,43.7,106.4,41.1,106.4z"/>
	<path class="st96" d="M41.1,121.1c2.5,0,4.9,0,7.4,0c0,1.9,0,3.7,0,5.7c-2.4,0-4.8,0-7.4,0C41.1,125,41.1,123.1,41.1,121.1z"/>
	<path class="st96" d="M48.6,120.1c-2.6,0-5,0-7.5,0c0-1.9,0-3.8,0-5.8c2.5,0,4.9,0,7.5,0C48.6,116.2,48.6,118.1,48.6,120.1z"/>
	<path class="st102" d="M48.6,107.5c0,1.9,0,3.7,0,5.7c-2.5,0-4.9,0-7.5,0c0-1.9,0-3.7,0-5.7C43.6,107.5,46,107.5,48.6,107.5z"/>
	<path class="st96" d="M41,79.3c0-2,0-3.8,0-5.7c2.5,0,5,0,7.5,0c0,1.9,0,3.7,0,5.7C46.1,79.3,43.6,79.3,41,79.3z"/>
	<path class="st50" d="M48.6,66.9c0,2,0,3.8,0,5.7c-2.5,0-5,0-7.5,0c0-1.9,0-3.8,0-5.7C43.6,66.9,46.1,66.9,48.6,66.9z"/>
	<path class="st50" d="M48.6,60c0,1.9,0,3.8,0,5.8c-2.5,0-5,0-7.5,0c0-1.9,0-3.8,0-5.8C43.6,60,46.1,60,48.6,60z"/>
	<path class="st103" d="M41.1,86.1c0-1.9,0-3.8,0-5.8c2.5,0,5,0,7.5,0c0,1.9,0,3.8,0,5.8C46,86.1,43.6,86.1,41.1,86.1z"/>
	<path class="st96" d="M41.1,92.9c0-2,0-3.8,0-5.7c2.5,0,4.9,0,7.5,0c0,1.8,0,3.7,0,5.7C46.1,92.9,43.6,92.9,41.1,92.9z"/>
	<path class="st104" d="M57.2,99.6c-2.5,0-4.9,0-7.4,0c0-1.9,0-3.7,0-5.7c2.4,0,4.9,0,7.4,0C57.2,95.8,57.2,97.7,57.2,99.6z"/>
	<path class="st50" d="M57.2,53.2c0,1.9,0,3.8,0,5.8c-2.5,0-5,0-7.5,0c0-1.9,0-3.8,0-5.8C52.3,53.2,54.7,53.2,57.2,53.2z"/>
	<path class="st104" d="M49.7,106.3c0-1.9,0-3.7,0-5.6c2.5,0,4.9,0,7.4,0c0,1.8,0,3.6,0,5.6C54.8,106.3,52.3,106.3,49.7,106.3z"/>
	<path class="st57" d="M49.8,121c2.5,0,4.9,0,7.4,0c0,1.9,0,3.7,0,5.7c-2.4,0-4.8,0-7.4,0C49.8,125,49.8,123.1,49.8,121z"/>
	<path class="st57" d="M57.2,120c-2.6,0-5,0-7.5,0c0-1.9,0-3.8,0-5.8c2.5,0,4.9,0,7.5,0C57.2,116.2,57.2,118,57.2,120z"/>
	<path class="st104" d="M57.2,107.5c0,1.9,0,3.7,0,5.7c-2.5,0-4.9,0-7.5,0c0-1.9,0-3.7,0-5.7C52.2,107.5,54.7,107.5,57.2,107.5z"/>
	<path class="st96" d="M49.7,79.3c0-2,0-3.8,0-5.7c2.5,0,5,0,7.5,0c0,1.9,0,3.7,0,5.7C54.7,79.3,52.3,79.3,49.7,79.3z"/>
	<path class="st51" d="M57.2,66.8c0,2,0,3.8,0,5.7c-2.5,0-5,0-7.5,0c0-1.9,0-3.8,0-5.7C52.3,66.8,54.8,66.8,57.2,66.8z"/>
	<path class="st76" d="M57.2,60c0,1.9,0,3.8,0,5.8c-2.5,0-5,0-7.5,0c0-1.9,0-3.8,0-5.8C52.3,60,54.7,60,57.2,60z"/>
	<path class="st50" d="M49.7,86.1c0-1.9,0-3.8,0-5.8c2.5,0,5,0,7.5,0c0,1.9,0,3.8,0,5.8C54.7,86.1,52.3,86.1,49.7,86.1z"/>
	<path class="st105" d="M49.7,92.8c0-2,0-3.8,0-5.7c2.5,0,4.9,0,7.5,0c0,1.8,0,3.7,0,5.7C54.8,92.8,52.3,92.8,49.7,92.8z"/>
	<path class="st96" d="M40,99.6c-2.5,0-4.9,0-7.4,0c0-1.9,0-3.7,0-5.7c2.4,0,4.9,0,7.4,0C40,95.8,40,97.7,40,99.6z"/>
	<path class="st50" d="M40,53.2c0,1.9,0,3.8,0,5.8c-2.5,0-5,0-7.5,0c0-1.9,0-3.8,0-5.8C35,53.2,37.4,53.2,40,53.2z"/>
	<path class="st103" d="M32.5,106.3c0-1.9,0-3.7,0-5.6c2.5,0,4.9,0,7.4,0c0,1.8,0,3.6,0,5.6C37.5,106.3,35.1,106.3,32.5,106.3z"/>
	<path class="st96" d="M32.5,121c2.5,0,4.9,0,7.4,0c0,1.9,0,3.7,0,5.7c-2.4,0-4.8,0-7.4,0C32.5,125,32.5,123.1,32.5,121z"/>
	<path class="st96" d="M40,120c-2.6,0-5,0-7.5,0c0-1.9,0-3.8,0-5.8c2.5,0,4.9,0,7.5,0C40,116.2,40,118,40,120z"/>
	<path class="st96" d="M40,107.5c0,1.9,0,3.7,0,5.7c-2.5,0-4.9,0-7.5,0c0-1.9,0-3.7,0-5.7C35,107.5,37.4,107.5,40,107.5z"/>
	<path class="st96" d="M32.4,79.3c0-2,0-3.8,0-5.7c2.5,0,5,0,7.5,0c0,1.9,0,3.7,0,5.7C37.5,79.3,35,79.3,32.4,79.3z"/>
	<path class="st50" d="M40,66.8c0,2,0,3.8,0,5.7c-2.5,0-5,0-7.5,0c0-1.9,0-3.8,0-5.7C35,66.8,37.5,66.8,40,66.8z"/>
	<path class="st50" d="M40,60c0,1.9,0,3.8,0,5.8c-2.5,0-5,0-7.5,0c0-1.9,0-3.8,0-5.8C35,60,37.4,60,40,60z"/>
	<path class="st50" d="M32.5,86.1c0-1.9,0-3.8,0-5.8c2.5,0,5,0,7.5,0c0,1.9,0,3.8,0,5.8C37.4,86.1,35,86.1,32.5,86.1z"/>
	<path class="st96" d="M32.5,92.8c0-2,0-3.8,0-5.7c2.5,0,4.9,0,7.5,0c0,1.8,0,3.7,0,5.7C37.5,92.8,35,92.8,32.5,92.8z"/>
	<path class="st96" d="M31.2,99.6c-2.5,0-4.9,0-7.4,0c0-1.9,0-3.7,0-5.7c2.4,0,4.9,0,7.4,0C31.2,95.8,31.2,97.7,31.2,99.6z"/>
	<path class="st50" d="M31.2,53.2c0,1.9,0,3.8,0,5.8c-2.5,0-5,0-7.5,0c0-1.9,0-3.8,0-5.8C26.2,53.2,28.7,53.2,31.2,53.2z"/>
	<path class="st96" d="M23.7,106.3c0-1.9,0-3.7,0-5.6c2.5,0,4.9,0,7.4,0c0,1.8,0,3.6,0,5.6C28.7,106.3,26.3,106.3,23.7,106.3z"/>
	<path class="st96" d="M23.7,121c2.5,0,4.9,0,7.4,0c0,1.9,0,3.7,0,5.7c-2.4,0-4.8,0-7.4,0C23.7,125,23.7,123.1,23.7,121z"/>
	<path class="st96" d="M31.2,120c-2.6,0-5,0-7.5,0c0-1.9,0-3.8,0-5.8c2.5,0,4.9,0,7.5,0C31.2,116.2,31.2,118,31.2,120z"/>
	<path class="st96" d="M31.2,107.5c0,1.9,0,3.7,0,5.7c-2.5,0-4.9,0-7.5,0c0-1.9,0-3.7,0-5.7C26.2,107.5,28.7,107.5,31.2,107.5z"/>
	<path class="st96" d="M23.7,79.3c0-2,0-3.8,0-5.7c2.5,0,5,0,7.5,0c0,1.9,0,3.7,0,5.7C28.7,79.3,26.3,79.3,23.7,79.3z"/>
	<path class="st76" d="M31.2,66.8c0,2,0,3.8,0,5.7c-2.5,0-5,0-7.5,0c0-1.9,0-3.8,0-5.7C26.3,66.8,28.8,66.8,31.2,66.8z"/>
	<path class="st50" d="M31.2,60c0,1.9,0,3.8,0,5.8c-2.5,0-5,0-7.5,0c0-1.9,0-3.8,0-5.8C26.2,60,28.7,60,31.2,60z"/>
	<path class="st96" d="M23.7,86.1c0-1.9,0-3.8,0-5.8c2.5,0,5,0,7.5,0c0,1.9,0,3.8,0,5.8C28.7,86.1,26.2,86.1,23.7,86.1z"/>
	<path class="st96" d="M23.7,92.8c0-2,0-3.8,0-5.7c2.5,0,4.9,0,7.5,0c0,1.8,0,3.7,0,5.7C28.7,92.8,26.3,92.8,23.7,92.8z"/>
	<path class="st106" d="M22.4,99.6c-2.5,0-4.9,0-7.4,0c0-1.9,0-3.7,0-5.7c2.4,0,4.9,0,7.4,0C22.4,95.8,22.4,97.7,22.4,99.6z"/>
	<path class="st50" d="M22.5,53.2c0,1.9,0,3.8,0,5.8c-2.5,0-5,0-7.5,0c0-1.9,0-3.8,0-5.8C17.5,53.2,19.9,53.2,22.5,53.2z"/>
	<path class="st103" d="M15,106.3c0-1.9,0-3.7,0-5.6c2.5,0,4.9,0,7.4,0c0,1.8,0,3.6,0,5.6C20,106.3,17.5,106.3,15,106.3z"/>
	<path class="st107" d="M15,121c2.5,0,4.9,0,7.4,0c0,1.9,0,3.7,0,5.7c-2.4,0-4.8,0-7.4,0C15,125,15,123.1,15,121z"/>
	<path class="st107" d="M22.5,120c-2.6,0-5,0-7.5,0c0-1.9,0-3.8,0-5.8c2.5,0,4.9,0,7.5,0C22.5,116.2,22.5,118,22.5,120z"/>
	<path class="st108" d="M22.5,107.5c0,1.9,0,3.7,0,5.7c-2.5,0-4.9,0-7.5,0c0-1.9,0-3.7,0-5.7C17.5,107.5,19.9,107.5,22.5,107.5z"/>
	<path class="st109" d="M14.9,79.3c0-2,0-3.8,0-5.7c2.5,0,5,0,7.5,0c0,1.9,0,3.7,0,5.7C20,79.3,17.5,79.3,14.9,79.3z"/>
	<path class="st74" d="M22.5,66.8c0,2,0,3.8,0,5.7c-2.5,0-5,0-7.5,0c0-1.9,0-3.8,0-5.7C17.5,66.8,20,66.8,22.5,66.8z"/>
	<path class="st110" d="M22.5,59.9c0,1.9,0,3.8,0,5.8c-2.5,0-5,0-7.5,0.1c0-1.9,0-3.8,0-5.8C17.5,60,19.9,60,22.5,59.9z"/>
	<path class="st109" d="M14.9,86.1c0-1.9,0-3.8,0-5.8c2.5,0,5,0,7.5,0c0,1.9,0,3.8,0,5.8C19.9,86.1,17.5,86.1,14.9,86.1z"/>
	<path class="st74" d="M15,92.8c0-2,0-3.8,0-5.7c2.5,0,4.9,0,7.5,0c0,1.8,0,3.7,0,5.7C20,92.8,17.5,92.8,15,92.8z"/>
	<path class="st53" d="M13.8,99.6c-2.5,0-4.9,0-7.4,0c0-1.9,0-3.7,0-5.7c2.4,0,4.9,0,7.4,0C13.8,95.8,13.8,97.7,13.8,99.6z"/>
	<path class="st50" d="M13.8,53.2c0,1.9,0,3.8,0,5.8c-2.5,0-5,0-7.5,0c0-1.9,0-3.8,0-5.8C8.8,53.2,11.3,53.2,13.8,53.2z"/>
	<path class="st111" d="M6.3,106.3c0-1.9,0-3.7,0-5.6c2.5,0,4.9,0,7.4,0c0,1.8,0,3.6,0,5.6C11.3,106.3,8.9,106.3,6.3,106.3z"/>
	<path class="st50" d="M6.3,121c2.5,0,4.9,0,7.4,0c0,1.9,0,3.7,0,5.7c-2.4,0-4.8,0-7.4,0C6.3,125,6.3,123.1,6.3,121z"/>
	<path class="st50" d="M13.8,120c-2.6,0-5,0-7.5,0c0-1.9,0-3.8,0-5.8c2.5,0,4.9,0,7.5,0C13.8,116.2,13.8,118,13.8,120z"/>
	<path class="st112" d="M13.8,107.5c0,1.9,0,3.7,0,5.7c-2.5,0-4.9,0-7.5,0c0-1.9,0-3.7,0-5.7C8.8,107.5,11.3,107.5,13.8,107.5z"/>
	<path class="st50" d="M6.3,79.3c0-2,0-3.8,0-5.7c2.5,0,5,0,7.5,0c0,1.9,0,3.7,0,5.7C11.3,79.3,8.9,79.3,6.3,79.3z"/>
	<path class="st50" d="M13.8,66.8c0,2,0,3.8,0,5.7c-2.5,0-5,0-7.5,0c0-1.9,0-3.8,0-5.7C8.9,66.8,11.4,66.8,13.8,66.8z"/>
	<path class="st50" d="M13.8,60c0,1.9,0,3.8,0,5.8c-2.5,0-5,0-7.5,0c0-1.9,0-3.8,0-5.8C8.8,60,11.3,60,13.8,60z"/>
	<path class="st50" d="M6.3,86.1c0-1.9,0-3.8,0-5.8c2.5,0,5,0,7.5,0c0,1.9,0,3.8,0,5.8C11.3,86.1,8.8,86.1,6.3,86.1z"/>
	<path class="st108" d="M6.3,92.8c0-2,0-3.8,0-5.7c2.5,0,4.9,0,7.5,0c0,1.8,0,3.7,0,5.7C11.3,92.8,8.9,92.8,6.3,92.8z"/>
	<linearGradient id="SVGID_1_" gradientUnits="userSpaceOnUse" x1="38" y1="35.5" x2="162" y2="35.5">
		<stop  offset="0" style="stop-color:#FF0007"/>
		<stop  offset="0.4966" style="stop-color:#F7F7F7"/>
		<stop  offset="1" style="stop-color:#53FF3F"/>
	</linearGradient>
	<rect x="38" y="31" class="st113" width="124" height="9"/>
</g>
</svg>
